<svg width="413" height="169" viewBox="0 0 413 169" fill="none" xmlns="http://www.w3.org/2000/svg">
<g filter="url(#filter0_d_2038_617537)">
<rect x="9.63232" y="7" width="121.299" height="40.9807" rx="6.82948" fill="white" shape-rendering="crispEdges"/>
<g clip-path="url(#clip0_2038_617537)">
<rect x="13.0471" y="10.4148" width="34.1513" height="34.1513" rx="3.41513" fill="#AE82FA"/>
<path d="M15.9272 -14.345L38.6754 -14.345C39.3119 -14.345 39.7159 -13.6453 39.4101 -13.0726L22.0898 19.3607C22.0752 19.3879 22.0623 19.4154 22.0509 19.4431L18.4007 25.9944C18.1912 26.4241 18.6494 26.7329 19.029 26.4241C19.4 26.1222 24.8226 21.6376 25.7768 20.633L34.9128 20.633C35.6111 20.633 36.0028 21.458 35.5725 22.0221L5.60321 61.307C5.03463 62.0523 3.8809 61.4452 4.13929 60.5366L11.4569 34.807C11.6133 34.257 11.2112 33.7069 10.6526 33.7069H1.93243C1.3681 33.7069 0.965197 33.1461 1.13223 32.5931L15.127 -13.7399C15.2356 -14.0997 15.56 -14.345 15.9272 -14.345Z" fill="#BEEFAF"/>
</g>
<path d="M63.1044 31.9905H61.5135L65.0883 22.0567H66.8199L70.3947 31.9905H68.8037L65.9953 23.8611H65.9177L63.1044 31.9905ZM63.3712 28.1004H68.5321V29.3615H63.3712V28.1004ZM73.1631 22.0567V31.9905H71.7128V22.0567H73.1631ZM76.5645 22.0567V31.9905H75.1142V22.0567H76.5645Z" fill="#3F3B45"/>
<path d="M82.8599 27.0236C82.8599 25.8013 83.0183 24.6776 83.3352 23.6525C83.6554 22.6242 84.1113 21.6784 84.7031 20.815H85.712C85.4791 21.1351 85.2609 21.5296 85.0572 21.9985C84.8567 22.4641 84.6804 22.9767 84.5284 23.5361C84.3765 24.0923 84.2568 24.6679 84.1695 25.2629C84.0854 25.8579 84.0434 26.4448 84.0434 27.0236C84.0434 27.7932 84.1178 28.5741 84.2665 29.3664C84.4153 30.1586 84.6158 30.8943 84.868 31.5733C85.1202 32.2524 85.4015 32.8054 85.712 33.2322H84.7031C84.1113 32.3688 83.6554 31.4246 83.3352 30.3995C83.0183 29.3712 82.8599 28.2459 82.8599 27.0236ZM87.1489 29.9533V28.9638L91.5144 22.0567H92.2322V23.5894H91.7472L88.4489 28.8086V28.8862H94.3276V29.9533H87.1489ZM91.8248 31.9905V29.6525V29.1918V22.0567H92.9695V31.9905H91.8248ZM99.3855 32.1263C98.6547 32.1263 98.0322 31.9274 97.518 31.5297C97.0039 31.1287 96.611 30.5483 96.3394 29.7884C96.0677 29.0252 95.9319 28.1036 95.9319 27.0236C95.9319 25.95 96.0677 25.0333 96.3394 24.2734C96.6142 23.5102 97.0087 22.9282 97.5229 22.5272C98.0403 22.123 98.6611 21.9209 99.3855 21.9209C100.11 21.9209 100.729 22.123 101.243 22.5272C101.761 22.9282 102.155 23.5102 102.427 24.2734C102.702 25.0333 102.839 25.95 102.839 27.0236C102.839 28.1036 102.703 29.0252 102.432 29.7884C102.16 30.5483 101.767 31.1287 101.253 31.5297C100.739 31.9274 100.116 32.1263 99.3855 32.1263ZM99.3855 31.0592C100.11 31.0592 100.672 30.71 101.073 30.0115C101.474 29.313 101.675 28.317 101.675 27.0236C101.675 26.1634 101.583 25.431 101.398 24.8263C101.217 24.2216 100.955 23.7608 100.613 23.4439C100.273 23.127 99.8641 22.9686 99.3855 22.9686C98.6676 22.9686 98.1066 23.3227 97.7024 24.0308C97.2982 24.7358 97.096 25.7334 97.096 27.0236C97.096 27.8837 97.1866 28.6145 97.3677 29.216C97.5488 29.8175 97.8091 30.275 98.1486 30.5887C98.4914 30.9024 98.9037 31.0592 99.3855 31.0592ZM107.922 32.1263C107.192 32.1263 106.569 31.9274 106.055 31.5297C105.541 31.1287 105.148 30.5483 104.876 29.7884C104.605 29.0252 104.469 28.1036 104.469 27.0236C104.469 25.95 104.605 25.0333 104.876 24.2734C105.151 23.5102 105.546 22.9282 106.06 22.5272C106.577 22.123 107.198 21.9209 107.922 21.9209C108.647 21.9209 109.266 22.123 109.78 22.5272C110.297 22.9282 110.692 23.5102 110.964 24.2734C111.238 25.0333 111.376 25.95 111.376 27.0236C111.376 28.1036 111.24 29.0252 110.968 29.7884C110.697 30.5483 110.304 31.1287 109.79 31.5297C109.276 31.9274 108.653 32.1263 107.922 32.1263ZM107.922 31.0592C108.647 31.0592 109.209 30.71 109.61 30.0115C110.011 29.313 110.212 28.317 110.212 27.0236C110.212 26.1634 110.12 25.431 109.935 24.8263C109.754 24.2216 109.492 23.7608 109.149 23.4439C108.81 23.127 108.401 22.9686 107.922 22.9686C107.204 22.9686 106.643 23.3227 106.239 24.0308C105.835 24.7358 105.633 25.7334 105.633 27.0236C105.633 27.8837 105.723 28.6145 105.905 29.216C106.086 29.8175 106.346 30.275 106.685 30.5887C107.028 30.9024 107.441 31.0592 107.922 31.0592ZM115.683 27.0236C115.683 28.2459 115.523 29.3712 115.203 30.3995C114.886 31.4246 114.432 32.3688 113.84 33.2322H112.831C113.064 32.9121 113.28 32.5176 113.481 32.0487C113.685 31.583 113.863 31.0721 114.015 30.5159C114.167 29.9565 114.285 29.3793 114.369 28.7843C114.456 28.1861 114.5 27.5992 114.5 27.0236C114.5 26.254 114.425 25.473 114.276 24.6808C114.128 23.8886 113.927 23.1529 113.675 22.4738C113.423 21.7948 113.141 21.2418 112.831 20.815H113.84C114.432 21.6784 114.886 22.6242 115.203 23.6525C115.523 24.6776 115.683 25.8013 115.683 27.0236Z" fill="#6B6772"/>
<rect x="8.99408" y="6.36175" width="122.575" height="42.2572" rx="7.46773" stroke="black" stroke-opacity="0.1" stroke-width="1.27649" shape-rendering="crispEdges"/>
</g>
<g filter="url(#filter1_d_2038_617537)">
<rect x="144.59" y="7" width="170.299" height="40.9807" rx="6.82948" fill="white" shape-rendering="crispEdges"/>
<g clip-path="url(#clip1_2038_617537)">
<rect x="148.005" y="10.4148" width="34.1513" height="34.1513" rx="3.41513" fill="#AE82FA"/>
<path d="M179.616 -46.7886L215.002 -46.7886C215.993 -46.7886 216.621 -45.7038 216.145 -44.8157L189.203 5.47412C189.18 5.51632 189.16 5.55896 189.142 5.60191L183.464 15.7601C183.138 16.4263 183.851 16.9053 184.441 16.4263C185.018 15.9582 193.454 9.00459 194.938 7.447H209.149C210.236 7.447 210.845 8.72615 210.176 9.60088L163.557 70.5145C162.672 71.6702 160.878 70.7287 161.28 69.32L172.662 29.4247C172.906 28.5718 172.28 27.7188 171.411 27.7188H157.847C156.969 27.7188 156.342 26.8493 156.602 25.9918L178.371 -45.8504C178.541 -46.4083 179.045 -46.7886 179.616 -46.7886Z" fill="#FFBB99"/>
</g>
<path d="M197.263 31.9905V22.0567H200.735C201.427 22.0567 201.998 22.1763 202.448 22.4156C202.897 22.6517 203.232 22.9702 203.452 23.3712C203.672 23.7689 203.782 24.2103 203.782 24.6954C203.782 25.1222 203.706 25.4747 203.554 25.7528C203.405 26.0309 203.208 26.2507 202.962 26.4124C202.719 26.5741 202.456 26.6938 202.171 26.7714V26.8684C202.475 26.8878 202.781 26.9945 203.088 27.1885C203.395 27.3825 203.652 27.6606 203.859 28.0228C204.066 28.385 204.17 28.828 204.17 29.3518C204.17 29.8498 204.056 30.2977 203.83 30.6954C203.604 31.0931 203.246 31.4084 202.758 31.6412C202.27 31.8741 201.634 31.9905 200.852 31.9905H197.263ZM198.465 30.9234H200.852C201.638 30.9234 202.195 30.7714 202.525 30.4674C202.858 30.1602 203.025 29.7884 203.025 29.3518C203.025 29.0155 202.939 28.7051 202.768 28.4205C202.596 28.1327 202.352 27.9031 202.035 27.7318C201.719 27.5571 201.343 27.4698 200.91 27.4698H198.465V30.9234ZM198.465 26.4221H200.697C201.059 26.4221 201.385 26.351 201.676 26.2087C201.971 26.0664 202.204 25.8659 202.375 25.6072C202.55 25.3486 202.637 25.0446 202.637 24.6954C202.637 24.2588 202.485 23.8886 202.181 23.5846C201.877 23.2774 201.395 23.1238 200.735 23.1238H198.465V26.4221ZM209.115 32.1457C208.397 32.1457 207.778 31.9872 207.257 31.6703C206.74 31.3502 206.34 30.904 206.059 30.3316C205.781 29.756 205.642 29.0867 205.642 28.3235C205.642 27.5604 205.781 26.8878 206.059 26.3057C206.34 25.7204 206.731 25.2645 207.233 24.9379C207.737 24.608 208.326 24.4431 208.998 24.4431C209.386 24.4431 209.769 24.5078 210.148 24.6371C210.526 24.7665 210.871 24.9767 211.181 25.2677C211.491 25.5555 211.739 25.9371 211.923 26.4124C212.107 26.8878 212.2 27.4731 212.2 28.1683V28.6533H206.457V27.6638H211.035C211.035 27.2435 210.951 26.8684 210.783 26.5385C210.618 26.2087 210.382 25.9484 210.075 25.7576C209.771 25.5668 209.412 25.4714 208.998 25.4714C208.542 25.4714 208.148 25.5846 207.815 25.811C207.485 26.0341 207.231 26.3251 207.053 26.6841C206.875 27.043 206.786 27.4278 206.786 27.8385V28.4981C206.786 29.0608 206.883 29.5378 207.077 29.929C207.275 30.3171 207.548 30.6129 207.897 30.8167C208.246 31.0171 208.652 31.1174 209.115 31.1174C209.415 31.1174 209.687 31.0754 209.93 30.9913C210.175 30.904 210.387 30.7746 210.565 30.6032C210.743 30.4286 210.88 30.212 210.977 29.9533L212.083 30.2637C211.967 30.6388 211.771 30.9686 211.496 31.2532C211.221 31.5345 210.882 31.7544 210.478 31.9129C210.073 32.0681 209.619 32.1457 209.115 32.1457ZM219.218 26.2087L218.19 26.4997C218.125 26.3283 218.03 26.1618 217.904 26.0001C217.781 25.8352 217.613 25.6994 217.399 25.5927C217.186 25.486 216.913 25.4326 216.58 25.4326C216.124 25.4326 215.744 25.5377 215.44 25.7479C215.139 25.9549 214.989 26.2184 214.989 26.5385C214.989 26.8231 215.092 27.0478 215.299 27.2128C215.506 27.3777 215.829 27.5151 216.269 27.625L217.375 27.8967C218.041 28.0584 218.538 28.3057 218.864 28.6388C219.191 28.9686 219.354 29.3939 219.354 29.9145C219.354 30.3413 219.231 30.7229 218.985 31.0592C218.743 31.3955 218.403 31.6606 217.967 31.8547C217.53 32.0487 217.023 32.1457 216.444 32.1457C215.684 32.1457 215.055 31.9808 214.557 31.6509C214.059 31.3211 213.744 30.8393 213.611 30.2055L214.698 29.9339C214.801 30.3348 214.997 30.6356 215.284 30.8361C215.576 31.0366 215.955 31.1368 216.424 31.1368C216.958 31.1368 217.382 31.0236 217.695 30.7973C218.012 30.5677 218.171 30.2928 218.171 29.9727C218.171 29.714 218.08 29.4973 217.899 29.3227C217.718 29.1449 217.44 29.0123 217.065 28.925L215.823 28.6339C215.141 28.4723 214.639 28.2217 214.319 27.8821C214.002 27.5394 213.844 27.1109 213.844 26.5967C213.844 26.1764 213.962 25.8045 214.198 25.4811C214.437 25.1578 214.762 24.9039 215.173 24.7196C215.587 24.5353 216.056 24.4431 216.58 24.4431C217.317 24.4431 217.896 24.6048 218.316 24.9282C218.74 25.2515 219.04 25.6784 219.218 26.2087ZM224.317 24.5401V25.5102H220.456V24.5401H224.317ZM221.582 22.7552H222.726V29.8563C222.726 30.1796 222.773 30.4222 222.867 30.5838C222.964 30.7423 223.087 30.849 223.236 30.904C223.388 30.9557 223.548 30.9816 223.716 30.9816C223.842 30.9816 223.945 30.9751 224.026 30.9622C224.107 30.946 224.172 30.9331 224.22 30.9234L224.453 31.9517C224.376 31.9808 224.267 32.0099 224.128 32.039C223.989 32.0713 223.813 32.0875 223.599 32.0875C223.276 32.0875 222.959 32.018 222.649 31.8789C222.342 31.7399 222.086 31.5281 221.882 31.2435C221.682 30.9589 221.582 30.6 221.582 30.1667V22.7552ZM235.158 26.2087L234.13 26.4997C234.065 26.3283 233.97 26.1618 233.844 26.0001C233.721 25.8352 233.553 25.6994 233.339 25.5927C233.126 25.486 232.853 25.4326 232.519 25.4326C232.064 25.4326 231.684 25.5377 231.38 25.7479C231.079 25.9549 230.929 26.2184 230.929 26.5385C230.929 26.8231 231.032 27.0478 231.239 27.2128C231.446 27.3777 231.769 27.5151 232.209 27.625L233.315 27.8967C233.981 28.0584 234.477 28.3057 234.804 28.6388C235.131 28.9686 235.294 29.3939 235.294 29.9145C235.294 30.3413 235.171 30.7229 234.925 31.0592C234.683 31.3955 234.343 31.6606 233.907 31.8547C233.47 32.0487 232.962 32.1457 232.384 32.1457C231.624 32.1457 230.995 31.9808 230.497 31.6509C229.999 31.3211 229.684 30.8393 229.551 30.2055L230.637 29.9339C230.741 30.3348 230.937 30.6356 231.224 30.8361C231.515 31.0366 231.895 31.1368 232.364 31.1368C232.898 31.1368 233.321 31.0236 233.635 30.7973C233.952 30.5677 234.11 30.2928 234.11 29.9727C234.11 29.714 234.02 29.4973 233.839 29.3227C233.658 29.1449 233.38 29.0123 233.005 28.925L231.763 28.6339C231.08 28.4723 230.579 28.2217 230.259 27.8821C229.942 27.5394 229.784 27.1109 229.784 26.5967C229.784 26.1764 229.902 25.8045 230.138 25.4811C230.377 25.1578 230.702 24.9039 231.113 24.7196C231.527 24.5353 231.996 24.4431 232.519 24.4431C233.257 24.4431 233.836 24.6048 234.256 24.9282C234.68 25.2515 234.98 25.6784 235.158 26.2087ZM240.141 32.1457C239.423 32.1457 238.804 31.9872 238.283 31.6703C237.766 31.3502 237.366 30.904 237.085 30.3316C236.807 29.756 236.668 29.0867 236.668 28.3235C236.668 27.5604 236.807 26.8878 237.085 26.3057C237.366 25.7204 237.758 25.2645 238.259 24.9379C238.763 24.608 239.352 24.4431 240.024 24.4431C240.412 24.4431 240.796 24.5078 241.174 24.6371C241.552 24.7665 241.897 24.9767 242.207 25.2677C242.518 25.5555 242.765 25.9371 242.949 26.4124C243.134 26.8878 243.226 27.4731 243.226 28.1683V28.6533H237.483V27.6638H242.062C242.062 27.2435 241.977 26.8684 241.809 26.5385C241.644 26.2087 241.408 25.9484 241.101 25.7576C240.797 25.5668 240.438 25.4714 240.024 25.4714C239.568 25.4714 239.174 25.5846 238.841 25.811C238.511 26.0341 238.257 26.3251 238.079 26.6841C237.901 27.043 237.813 27.4278 237.813 27.8385V28.4981C237.813 29.0608 237.91 29.5378 238.104 29.929C238.301 30.3171 238.574 30.6129 238.923 30.8167C239.273 31.0171 239.678 31.1174 240.141 31.1174C240.442 31.1174 240.713 31.0754 240.956 30.9913C241.201 30.904 241.413 30.7746 241.591 30.6032C241.769 30.4286 241.906 30.212 242.003 29.9533L243.109 30.2637C242.993 30.6388 242.797 30.9686 242.522 31.2532C242.248 31.5345 241.908 31.7544 241.504 31.9129C241.1 32.0681 240.645 32.1457 240.141 32.1457ZM246.112 22.0567V31.9905H244.967V22.0567H246.112ZM249.353 22.0567V31.9905H248.208V22.0567H249.353ZM254.573 32.1457C253.856 32.1457 253.236 31.9872 252.716 31.6703C252.198 31.3502 251.799 30.904 251.518 30.3316C251.239 29.756 251.1 29.0867 251.1 28.3235C251.1 27.5604 251.239 26.8878 251.518 26.3057C251.799 25.7204 252.19 25.2645 252.691 24.9379C253.196 24.608 253.784 24.4431 254.457 24.4431C254.845 24.4431 255.228 24.5078 255.607 24.6371C255.985 24.7665 256.329 24.9767 256.64 25.2677C256.95 25.5555 257.198 25.9371 257.382 26.4124C257.566 26.8878 257.658 27.4731 257.658 28.1683V28.6533H251.915V27.6638H256.494C256.494 27.2435 256.41 26.8684 256.242 26.5385C256.077 26.2087 255.841 25.9484 255.534 25.7576C255.23 25.5668 254.871 25.4714 254.457 25.4714C254.001 25.4714 253.607 25.5846 253.273 25.811C252.944 26.0341 252.69 26.3251 252.512 26.6841C252.334 27.043 252.245 27.4278 252.245 27.8385V28.4981C252.245 29.0608 252.342 29.5378 252.536 29.929C252.733 30.3171 253.007 30.6129 253.356 30.8167C253.705 31.0171 254.111 31.1174 254.573 31.1174C254.874 31.1174 255.146 31.0754 255.388 30.9913C255.634 30.904 255.846 30.7746 256.024 30.6032C256.202 30.4286 256.339 30.212 256.436 29.9533L257.542 30.2637C257.425 30.6388 257.23 30.9686 256.955 31.2532C256.68 31.5345 256.341 31.7544 255.936 31.9129C255.532 32.0681 255.078 32.1457 254.573 32.1457ZM259.4 31.9905V24.5401H260.506V25.6655H260.583C260.719 25.2968 260.965 24.9977 261.32 24.7681C261.676 24.5385 262.077 24.4237 262.523 24.4237C262.607 24.4237 262.713 24.4253 262.839 24.4286C262.965 24.4318 263.06 24.4367 263.125 24.4431V25.6072C263.086 25.5975 262.997 25.583 262.858 25.5636C262.722 25.541 262.578 25.5296 262.426 25.5296C262.064 25.5296 261.741 25.6056 261.456 25.7576C261.175 25.9064 260.952 26.1133 260.787 26.3785C260.625 26.6404 260.544 26.9395 260.544 27.2758V31.9905H259.4ZM269.759 26.2087L268.731 26.4997C268.666 26.3283 268.571 26.1618 268.445 26.0001C268.322 25.8352 268.154 25.6994 267.94 25.5927C267.727 25.486 267.453 25.4326 267.12 25.4326C266.664 25.4326 266.284 25.5377 265.981 25.7479C265.68 25.9549 265.529 26.2184 265.529 26.5385C265.529 26.8231 265.633 27.0478 265.84 27.2128C266.047 27.3777 266.37 27.5151 266.81 27.625L267.916 27.8967C268.582 28.0584 269.078 28.3057 269.405 28.6388C269.732 28.9686 269.895 29.3939 269.895 29.9145C269.895 30.3413 269.772 30.7229 269.526 31.0592C269.284 31.3955 268.944 31.6606 268.508 31.8547C268.071 32.0487 267.563 32.1457 266.985 32.1457C266.225 32.1457 265.596 31.9808 265.098 31.6509C264.6 31.3211 264.284 30.8393 264.152 30.2055L265.238 29.9339C265.342 30.3348 265.537 30.6356 265.825 30.8361C266.116 31.0366 266.496 31.1368 266.965 31.1368C267.499 31.1368 267.922 31.0236 268.236 30.7973C268.553 30.5677 268.711 30.2928 268.711 29.9727C268.711 29.714 268.621 29.4973 268.44 29.3227C268.259 29.1449 267.981 29.0123 267.605 28.925L266.364 28.6339C265.681 28.4723 265.18 28.2217 264.86 27.8821C264.543 27.5394 264.385 27.1109 264.385 26.5967C264.385 26.1764 264.503 25.8045 264.739 25.4811C264.978 25.1578 265.303 24.9039 265.714 24.7196C266.128 24.5353 266.597 24.4431 267.12 24.4431C267.858 24.4431 268.436 24.6048 268.857 24.9282C269.28 25.2515 269.581 25.6784 269.759 26.2087Z" fill="#3F3B45"/>
<path d="M275.833 27.0236C275.833 25.8013 275.991 24.6776 276.308 23.6525C276.628 22.6242 277.084 21.6784 277.676 20.815H278.685C278.452 21.1351 278.234 21.5296 278.03 21.9985C277.829 22.4641 277.653 22.9767 277.501 23.5361C277.349 24.0923 277.23 24.6679 277.142 25.2629C277.058 25.8579 277.016 26.4448 277.016 27.0236C277.016 27.7932 277.091 28.5741 277.239 29.3664C277.388 30.1586 277.589 30.8943 277.841 31.5733C278.093 32.2524 278.374 32.8054 278.685 33.2322H277.676C277.084 32.3688 276.628 31.4246 276.308 30.3995C275.991 29.3712 275.833 28.2459 275.833 27.0236ZM280.355 31.9905V31.1174L283.634 27.528C284.018 27.1077 284.335 26.7423 284.584 26.4318C284.833 26.1182 285.018 25.8239 285.137 25.549C285.26 25.2709 285.321 24.9799 285.321 24.676C285.321 24.3267 285.237 24.0244 285.069 23.7689C284.904 23.5135 284.678 23.3162 284.39 23.1772C284.102 23.0381 283.779 22.9686 283.42 22.9686C283.039 22.9686 282.705 23.0478 282.421 23.2063C282.14 23.3615 281.921 23.5797 281.766 23.8611C281.614 24.1424 281.538 24.4722 281.538 24.8506H280.393C280.393 24.2685 280.528 23.7576 280.796 23.3178C281.064 22.878 281.43 22.5353 281.892 22.2895C282.358 22.0438 282.88 21.9209 283.459 21.9209C284.041 21.9209 284.557 22.0438 285.006 22.2895C285.456 22.5353 285.808 22.8667 286.064 23.2839C286.319 23.701 286.447 24.165 286.447 24.676C286.447 25.0414 286.38 25.3987 286.248 25.7479C286.119 26.0939 285.892 26.4803 285.569 26.9072C285.249 27.3308 284.804 27.8482 284.235 28.4593L282.004 30.8458V30.9234H286.621V31.9905H280.355ZM291.865 32.1263C291.134 32.1263 290.511 31.9274 289.997 31.5297C289.483 31.1287 289.09 30.5483 288.819 29.7884C288.547 29.0252 288.411 28.1036 288.411 27.0236C288.411 25.95 288.547 25.0333 288.819 24.2734C289.094 23.5102 289.488 22.9282 290.002 22.5272C290.52 22.123 291.14 21.9209 291.865 21.9209C292.589 21.9209 293.208 22.123 293.723 22.5272C294.24 22.9282 294.634 23.5102 294.906 24.2734C295.181 25.0333 295.318 25.95 295.318 27.0236C295.318 28.1036 295.183 29.0252 294.911 29.7884C294.639 30.5483 294.246 31.1287 293.732 31.5297C293.218 31.9274 292.596 32.1263 291.865 32.1263ZM291.865 31.0592C292.589 31.0592 293.152 30.71 293.553 30.0115C293.954 29.313 294.154 28.317 294.154 27.0236C294.154 26.1634 294.062 25.431 293.878 24.8263C293.697 24.2216 293.435 23.7608 293.092 23.4439C292.752 23.127 292.343 22.9686 291.865 22.9686C291.147 22.9686 290.586 23.3227 290.182 24.0308C289.777 24.7358 289.575 25.7334 289.575 27.0236C289.575 27.8837 289.666 28.6145 289.847 29.216C290.028 29.8175 290.288 30.275 290.628 30.5887C290.971 30.9024 291.383 31.0592 291.865 31.0592ZM299.626 27.0236C299.626 28.2459 299.465 29.3712 299.145 30.3995C298.828 31.4246 298.374 32.3688 297.782 33.2322H296.773C297.006 32.9121 297.223 32.5176 297.423 32.0487C297.627 31.583 297.805 31.0721 297.957 30.5159C298.109 29.9565 298.227 29.3793 298.311 28.7843C298.398 28.1861 298.442 27.5992 298.442 27.0236C298.442 26.254 298.368 25.473 298.219 24.6808C298.07 23.8886 297.87 23.1529 297.617 22.4738C297.365 21.7948 297.084 21.2418 296.773 20.815H297.782C298.374 21.6784 298.828 22.6242 299.145 23.6525C299.465 24.6776 299.626 25.8013 299.626 27.0236Z" fill="#6B6772"/>
<rect x="143.952" y="6.36175" width="171.575" height="42.2572" rx="7.46773" stroke="black" stroke-opacity="0.1" stroke-width="1.27649" shape-rendering="crispEdges"/>
</g>
<g filter="url(#filter2_d_2038_617537)">
<rect x="9.63232" y="61.6396" width="175.299" height="40.9807" rx="6.82948" fill="white" shape-rendering="crispEdges"/>
<g clip-path="url(#clip2_2038_617537)">
<rect x="13.047" y="65.0547" width="34.1513" height="34.1513" rx="3.41513" fill="#AE82FA"/>
<path d="M35.6324 26.2961L67.6753 43.559C68.5719 44.0421 68.6116 45.3313 67.7473 45.9037L18.8067 78.3167C18.7657 78.3439 18.7266 78.3727 18.6896 78.403L8.59036 84.8351C7.97016 85.2797 8.38176 86.0612 9.1502 85.9155C9.90132 85.773 20.9331 83.5888 23.0374 82.9019L35.9062 89.8349C36.8898 90.3648 36.8174 91.8209 35.7843 92.2867L-36.1583 124.725C-37.5232 125.34 -38.6889 123.612 -37.6374 122.532L-7.8595 91.9442C-7.2229 91.2903 -7.37304 90.2125 -8.15977 89.7886L-20.443 83.1711C-21.2379 82.7429 -21.381 81.6494 -20.7273 80.9994L34.0474 26.5387C34.4727 26.1158 35.1152 26.0175 35.6324 26.2961Z" fill="white" fill-opacity="0.5"/>
</g>
<path d="M62.4174 86.6301V76.6963H65.774C66.55 76.6963 67.1871 76.8289 67.6851 77.0941C68.183 77.356 68.5517 77.7166 68.791 78.1757C69.0303 78.6349 69.1499 79.1572 69.1499 79.7424C69.1499 80.3277 69.0303 80.8467 68.791 81.2994C68.5517 81.7522 68.1847 82.1079 67.6899 82.3666C67.1952 82.622 66.563 82.7497 65.7934 82.7497H63.0771V81.6632H65.7546C66.2849 81.6632 66.7117 81.5856 67.0351 81.4304C67.3617 81.2752 67.5978 81.0553 67.7433 80.7707C67.892 80.4829 67.9664 80.1402 67.9664 79.7424C67.9664 79.3447 67.892 78.9971 67.7433 78.6996C67.5945 78.4021 67.3568 78.1725 67.0302 78.0108C66.7036 77.8459 66.272 77.7634 65.7352 77.7634H63.6204V86.6301H62.4174ZM67.0933 82.1677L69.5379 86.6301H68.141L65.7352 82.1677H67.0933ZM75.6944 83.584V79.1798H76.8391V86.6301H75.6944V85.369H75.6168C75.4422 85.7473 75.1706 86.0691 74.8019 86.3342C74.4333 86.5962 73.9676 86.7271 73.405 86.7271C72.9393 86.7271 72.5254 86.6253 72.1633 86.4216C71.8011 86.2146 71.5165 85.9042 71.3096 85.4903C71.1026 85.0731 70.9992 84.5477 70.9992 83.9139V79.1798H72.1439V83.8362C72.1439 84.3795 72.2958 84.8128 72.5998 85.1362C72.907 85.4595 73.2983 85.6212 73.7736 85.6212C74.0582 85.6212 74.3476 85.5485 74.6419 85.403C74.9394 85.2574 75.1884 85.0343 75.3888 84.7336C75.5926 84.4329 75.6944 84.0497 75.6944 83.584ZM80.0805 82.1483V86.6301H78.9358V79.1798H80.0417V80.3439H80.1387C80.3133 79.9656 80.5785 79.6616 80.9342 79.432C81.2899 79.1992 81.749 79.0828 82.3117 79.0828C82.8161 79.0828 83.2575 79.1863 83.6359 79.3932C84.0142 79.5969 84.3085 79.9074 84.5187 80.3245C84.7288 80.7384 84.8339 81.2623 84.8339 81.8961V86.6301H83.6892V81.9737C83.6892 81.3884 83.5372 80.9324 83.2333 80.6058C82.9293 80.276 82.5122 80.1111 81.9819 80.1111C81.6165 80.1111 81.2899 80.1903 81.0021 80.3488C80.7175 80.5072 80.4928 80.7384 80.3278 81.0424C80.1629 81.3463 80.0805 81.715 80.0805 82.1483ZM88.0704 82.1483V86.6301H86.9257V79.1798H88.0316V80.3439H88.1286C88.3032 79.9656 88.5684 79.6616 88.9241 79.432C89.2798 79.1992 89.739 79.0828 90.3016 79.0828C90.8061 79.0828 91.2475 79.1863 91.6258 79.3932C92.0042 79.5969 92.2984 79.9074 92.5086 80.3245C92.7188 80.7384 92.8239 81.2623 92.8239 81.8961V86.6301H91.6792V81.9737C91.6792 81.3884 91.5272 80.9324 91.2232 80.6058C90.9193 80.276 90.5021 80.1111 89.9718 80.1111C89.6064 80.1111 89.2798 80.1903 88.992 80.3488C88.7075 80.5072 88.4827 80.7384 88.3178 81.0424C88.1529 81.3463 88.0704 81.715 88.0704 82.1483ZM94.9157 86.6301V79.1798H96.0604V86.6301H94.9157ZM95.4977 77.9381C95.2746 77.9381 95.0822 77.8621 94.9205 77.7101C94.7621 77.5581 94.6828 77.3754 94.6828 77.162C94.6828 76.9486 94.7621 76.7659 94.9205 76.6139C95.0822 76.4619 95.2746 76.3859 95.4977 76.3859C95.7208 76.3859 95.9116 76.4619 96.0701 76.6139C96.2318 76.7659 96.3126 76.9486 96.3126 77.162C96.3126 77.3754 96.2318 77.5581 96.0701 77.7101C95.9116 77.8621 95.7208 77.9381 95.4977 77.9381ZM99.3017 82.1483V86.6301H98.157V79.1798H99.2629V80.3439H99.3599C99.5345 79.9656 99.7997 79.6616 100.155 79.432C100.511 79.1992 100.97 79.0828 101.533 79.0828C102.037 79.0828 102.479 79.1863 102.857 79.3932C103.235 79.5969 103.53 79.9074 103.74 80.3245C103.95 80.7384 104.055 81.2623 104.055 81.8961V86.6301H102.91V81.9737C102.91 81.3884 102.758 80.9324 102.455 80.6058C102.151 80.276 101.733 80.1111 101.203 80.1111C100.838 80.1111 100.511 80.1903 100.223 80.3488C99.9387 80.5072 99.714 80.7384 99.5491 81.0424C99.3842 81.3463 99.3017 81.715 99.3017 82.1483ZM109.154 89.5792C108.601 89.5792 108.126 89.5081 107.728 89.3658C107.33 89.2268 106.999 89.0424 106.734 88.8128C106.472 88.5865 106.263 88.344 106.108 88.0853L107.02 87.445C107.124 87.5808 107.254 87.736 107.413 87.9107C107.571 88.0885 107.788 88.2421 108.063 88.3714C108.341 88.504 108.705 88.5703 109.154 88.5703C109.756 88.5703 110.252 88.4248 110.643 88.1338C111.035 87.8427 111.23 87.3868 111.23 86.7659V85.2526H111.133C111.049 85.3884 110.93 85.5566 110.774 85.757C110.622 85.9543 110.402 86.1305 110.115 86.2857C109.83 86.4377 109.445 86.5137 108.96 86.5137C108.359 86.5137 107.819 86.3714 107.34 86.0869C106.865 85.8023 106.488 85.3884 106.21 84.8451C105.935 84.3019 105.798 83.6422 105.798 82.8662C105.798 82.103 105.932 81.4385 106.2 80.8726C106.469 80.3035 106.842 79.8637 107.321 79.5533C107.799 79.2396 108.352 79.0828 108.98 79.0828C109.465 79.0828 109.849 79.1636 110.134 79.3253C110.422 79.4838 110.642 79.6648 110.794 79.8686C110.949 80.069 111.069 80.234 111.153 80.3633H111.269V79.1798H112.375V86.8435C112.375 87.4838 112.229 88.0044 111.938 88.4054C111.651 88.8096 111.263 89.1055 110.774 89.293C110.289 89.4838 109.749 89.5792 109.154 89.5792ZM109.115 85.4854C109.575 85.4854 109.963 85.3803 110.28 85.1701C110.596 84.9599 110.837 84.6576 111.002 84.2631C111.167 83.8686 111.25 83.3965 111.25 82.8468C111.25 82.31 111.169 81.8362 111.007 81.4256C110.845 81.0149 110.606 80.6931 110.289 80.4603C109.972 80.2275 109.581 80.1111 109.115 80.1111C108.63 80.1111 108.226 80.234 107.903 80.4797C107.583 80.7255 107.342 81.0553 107.18 81.4692C107.022 81.8831 106.942 82.3423 106.942 82.8468C106.942 83.3641 107.023 83.8217 107.185 84.2194C107.35 84.6139 107.592 84.9244 107.913 85.1507C108.236 85.3739 108.637 85.4854 109.115 85.4854ZM119.457 76.6963V86.6301H118.312V76.6963H119.457ZM124.58 86.7853C123.907 86.7853 123.317 86.6253 122.81 86.3051C122.305 85.985 121.911 85.5372 121.626 84.9616C121.345 84.386 121.204 83.7134 121.204 82.9438C121.204 82.1677 121.345 81.4902 121.626 80.9114C121.911 80.3326 122.305 79.8831 122.81 79.563C123.317 79.2428 123.907 79.0828 124.58 79.0828C125.253 79.0828 125.841 79.2428 126.346 79.563C126.853 79.8831 127.248 80.3326 127.529 80.9114C127.814 81.4902 127.956 82.1677 127.956 82.9438C127.956 83.7134 127.814 84.386 127.529 84.9616C127.248 85.5372 126.853 85.985 126.346 86.3051C125.841 86.6253 125.253 86.7853 124.58 86.7853ZM124.58 85.757C125.091 85.757 125.511 85.6261 125.841 85.3642C126.171 85.1022 126.415 84.7578 126.574 84.331C126.732 83.9042 126.811 83.4417 126.811 82.9438C126.811 82.4458 126.732 81.9817 126.574 81.5517C126.415 81.1216 126.171 80.774 125.841 80.5088C125.511 80.2437 125.091 80.1111 124.58 80.1111C124.069 80.1111 123.649 80.2437 123.319 80.5088C122.989 80.774 122.745 81.1216 122.586 81.5517C122.428 81.9817 122.349 82.4458 122.349 82.9438C122.349 83.4417 122.428 83.9042 122.586 84.331C122.745 84.7578 122.989 85.1022 123.319 85.3642C123.649 85.6261 124.069 85.757 124.58 85.757ZM131.138 86.6301L128.868 79.1798H130.071L131.681 84.884H131.759L133.35 79.1798H134.572L136.144 84.8646H136.221L137.832 79.1798H139.034L136.764 86.6301H135.639L134.009 80.9066H133.893L132.263 86.6301H131.138Z" fill="#3F3B45"/>
<path d="M145.128 81.6632C145.128 80.4409 145.287 79.3172 145.604 78.2921C145.924 77.2638 146.38 76.318 146.971 75.4546H147.98C147.748 75.7747 147.529 76.1693 147.326 76.6381C147.125 77.1038 146.949 77.6163 146.797 78.1757C146.645 78.7319 146.525 79.3075 146.438 79.9025C146.354 80.4975 146.312 81.0844 146.312 81.6632C146.312 82.4328 146.386 83.2138 146.535 84.006C146.684 84.7983 146.884 85.5339 147.136 86.213C147.389 86.8921 147.67 87.445 147.98 87.8719H146.971C146.38 87.0085 145.924 86.0642 145.604 85.0392C145.287 84.0109 145.128 82.8856 145.128 81.6632ZM149.417 84.5929V83.6034L153.783 76.6963H154.501V78.2291H154.016L150.717 83.4482V83.5258H156.596V84.5929H149.417ZM154.093 86.6301V84.2922V83.8314V76.6963H155.238V86.6301H154.093ZM161.654 86.7659C160.923 86.7659 160.301 86.5671 159.786 86.1693C159.272 85.7684 158.879 85.1879 158.608 84.428C158.336 83.6649 158.2 82.7433 158.2 81.6632C158.2 80.5897 158.336 79.6729 158.608 78.913C158.883 78.1499 159.277 77.5678 159.791 77.1668C160.309 76.7626 160.93 76.5605 161.654 76.5605C162.378 76.5605 162.997 76.7626 163.512 77.1668C164.029 77.5678 164.424 78.1499 164.695 78.913C164.97 79.6729 165.107 80.5897 165.107 81.6632C165.107 82.7433 164.972 83.6649 164.7 84.428C164.428 85.1879 164.035 85.7684 163.521 86.1693C163.007 86.5671 162.385 86.7659 161.654 86.7659ZM161.654 85.6988C162.378 85.6988 162.941 85.3496 163.342 84.6511C163.743 83.9527 163.943 82.9567 163.943 81.6632C163.943 80.8031 163.851 80.0707 163.667 79.466C163.486 78.8613 163.224 78.4005 162.881 78.0836C162.542 77.7667 162.132 77.6082 161.654 77.6082C160.936 77.6082 160.375 77.9623 159.971 78.6705C159.567 79.3754 159.364 80.373 159.364 81.6632C159.364 82.5234 159.455 83.2542 159.636 83.8557C159.817 84.4571 160.077 84.9147 160.417 85.2283C160.76 85.542 161.172 85.6988 161.654 85.6988ZM169.415 81.6632C169.415 82.8856 169.255 84.0109 168.934 85.0392C168.618 86.0642 168.163 87.0085 167.571 87.8719H166.563C166.795 87.5517 167.012 87.1572 167.213 86.6883C167.416 86.2227 167.594 85.7118 167.746 85.1556C167.898 84.5962 168.016 84.019 168.1 83.424C168.187 82.8257 168.231 82.2388 168.231 81.6632C168.231 80.8936 168.157 80.1127 168.008 79.3205C167.859 78.5282 167.659 77.7925 167.407 77.1135C167.154 76.4344 166.873 75.8815 166.563 75.4546H167.571C168.163 76.318 168.618 77.2638 168.934 78.2921C169.255 79.3172 169.415 80.4409 169.415 81.6632Z" fill="#6B6772"/>
<rect x="8.99408" y="61.0014" width="176.575" height="42.2572" rx="7.46773" stroke="black" stroke-opacity="0.1" stroke-width="1.27649" shape-rendering="crispEdges"/>
</g>
<g filter="url(#filter3_d_2038_617537)">
<g clip-path="url(#clip3_2038_617537)">
<mask id="path-21-inside-1_2038_617537" fill="white">
<path d="M198.59 61.6396H403.621V102.617H198.59V61.6396Z"/>
</mask>
<path d="M198.59 61.6396H403.621V102.617H198.59V61.6396Z" fill="white"/>
<rect x="215.664" y="71.8828" width="20.4908" height="20.4908" rx="2.04908" fill="#EEFF9A"/>
<path d="M221.356 86.6817C221.356 84.7955 222.885 83.2665 224.771 83.2665H227.048C228.934 83.2665 230.463 84.7955 230.463 86.6817V86.6817C230.463 87.3104 229.953 87.82 229.324 87.82H222.494C221.865 87.82 221.356 87.3104 221.356 86.6817V86.6817Z" stroke="#445200" stroke-width="1.28067" stroke-linecap="round" stroke-linejoin="round"/>
<path d="M228.186 78.713C228.186 79.9704 227.167 80.9898 225.909 80.9898C224.652 80.9898 223.632 79.9704 223.632 78.713C223.632 77.4556 224.652 76.4363 225.909 76.4363C227.167 76.4363 228.186 77.4556 228.186 78.713Z" stroke="#445200" stroke-width="1.28067" stroke-linecap="round" stroke-linejoin="round"/>
<path d="M251.267 86.6282V76.6944H254.74C255.432 76.6944 256.002 76.814 256.452 77.0533C256.901 77.2894 257.236 77.6079 257.456 78.0089C257.676 78.4066 257.786 78.848 257.786 79.333C257.786 79.7599 257.71 80.1124 257.558 80.3905C257.409 80.6685 257.212 80.8884 256.966 81.0501C256.724 81.2118 256.46 81.3314 256.175 81.4091V81.5061C256.479 81.5255 256.785 81.6322 257.092 81.8262C257.399 82.0202 257.656 82.2983 257.863 82.6605C258.07 83.0226 258.174 83.4657 258.174 83.9895C258.174 84.4875 258.061 84.9354 257.834 85.3331C257.608 85.7308 257.251 86.0461 256.762 86.2789C256.274 86.5118 255.639 86.6282 254.856 86.6282H251.267ZM252.47 85.5611H254.856C255.642 85.5611 256.2 85.4091 256.53 85.1051C256.863 84.7979 257.029 84.4261 257.029 83.9895C257.029 83.6532 256.943 83.3428 256.772 83.0582C256.601 82.7704 256.357 82.5408 256.04 82.3695C255.723 82.1948 255.348 82.1075 254.914 82.1075H252.47V85.5611ZM252.47 81.0598H254.701C255.063 81.0598 255.39 80.9887 255.681 80.8464C255.975 80.7041 256.208 80.5036 256.379 80.2449C256.554 79.9862 256.641 79.6823 256.641 79.333C256.641 78.8965 256.489 78.5263 256.185 78.2223C255.881 77.9151 255.399 77.7615 254.74 77.7615H252.47V81.0598ZM261.14 76.6944V86.6282H259.995V76.6944H261.14ZM265.429 86.8028C264.957 86.8028 264.528 86.7139 264.144 86.536C263.759 86.3549 263.453 86.0946 263.227 85.7551C263.001 85.4123 262.887 84.9984 262.887 84.5134C262.887 84.0865 262.971 83.7405 263.14 83.4754C263.308 83.207 263.532 82.9968 263.814 82.8448C264.095 82.6928 264.406 82.5796 264.745 82.5053C265.088 82.4277 265.432 82.3662 265.778 82.3209C266.231 82.2627 266.598 82.2191 266.879 82.19C267.164 82.1576 267.371 82.1043 267.5 82.0299C267.633 81.9555 267.699 81.8262 267.699 81.6419V81.6031C267.699 81.1245 267.568 80.7526 267.306 80.4875C267.047 80.2223 266.655 80.0897 266.127 80.0897C265.581 80.0897 265.152 80.2094 264.842 80.4487C264.532 80.688 264.313 80.9434 264.187 81.215L263.101 80.827C263.295 80.3743 263.553 80.0218 263.877 79.7696C264.203 79.5141 264.559 79.3363 264.944 79.236C265.332 79.1326 265.714 79.0808 266.089 79.0808C266.328 79.0808 266.603 79.1099 266.913 79.1681C267.227 79.2231 267.529 79.3379 267.82 79.5125C268.115 79.6871 268.359 79.9507 268.553 80.3031C268.747 80.6556 268.844 81.1277 268.844 81.7195V86.6282H267.699V85.6193H267.641C267.563 85.781 267.434 85.954 267.253 86.1383C267.072 86.3226 266.831 86.4794 266.53 86.6088C266.229 86.7381 265.862 86.8028 265.429 86.8028ZM265.604 85.7745C266.056 85.7745 266.438 85.6856 266.748 85.5077C267.062 85.3299 267.298 85.1003 267.456 84.8189C267.618 84.5376 267.699 84.2417 267.699 83.9313V82.8836C267.65 82.9418 267.544 82.9952 267.379 83.0437C267.217 83.0889 267.03 83.1294 266.816 83.1649C266.606 83.1973 266.401 83.2264 266.2 83.2522C266.003 83.2749 265.843 83.2943 265.72 83.3104C265.423 83.3492 265.144 83.4123 264.886 83.4996C264.63 83.5837 264.423 83.7114 264.265 83.8828C264.11 84.051 264.032 84.2805 264.032 84.5716C264.032 84.9693 264.179 85.27 264.473 85.4738C264.771 85.6742 265.148 85.7745 265.604 85.7745ZM273.96 86.7834C273.261 86.7834 272.66 86.6185 272.155 86.2886C271.651 85.9588 271.263 85.5045 270.991 84.9257C270.72 84.3468 270.584 83.6855 270.584 82.9418C270.584 82.1851 270.723 81.5174 271.001 80.9386C271.282 80.3565 271.674 79.9022 272.175 79.5756C272.679 79.2457 273.268 79.0808 273.94 79.0808C274.464 79.0808 274.936 79.1778 275.357 79.3719C275.777 79.5659 276.121 79.8375 276.39 80.1867C276.658 80.536 276.825 80.9434 276.889 81.4091H275.745C275.657 81.0695 275.463 80.7688 275.163 80.5069C274.865 80.2417 274.464 80.1091 273.96 80.1091C273.514 80.1091 273.122 80.2255 272.786 80.4584C272.453 80.688 272.193 81.0129 272.005 81.4333C271.821 81.8504 271.729 82.3403 271.729 82.903C271.729 83.4786 271.819 83.9798 272 84.4067C272.184 84.8335 272.443 85.1649 272.776 85.401C273.113 85.6371 273.507 85.7551 273.96 85.7551C274.257 85.7551 274.527 85.7033 274.77 85.5999C275.012 85.4964 275.218 85.3476 275.386 85.1536C275.554 84.9596 275.674 84.7268 275.745 84.4552H276.889C276.825 84.8949 276.665 85.2911 276.409 85.6435C276.157 85.9928 275.822 86.2709 275.405 86.4778C274.991 86.6815 274.509 86.7834 273.96 86.7834ZM279.63 83.9119L279.611 82.4956H279.843L283.103 79.1778H284.519L281.046 82.6896H280.949L279.63 83.9119ZM278.563 86.6282V76.6944H279.708V86.6282H278.563ZM283.297 86.6282L280.387 82.9418L281.202 82.1463L284.752 86.6282H283.297ZM289.989 86.6282V76.6944H295.946V77.7615H291.192V81.118H295.5V82.1851H291.192V86.6282H289.989ZM297.771 86.6282V79.1778H298.877V80.3031H298.954C299.09 79.9345 299.336 79.6354 299.692 79.4058C300.047 79.1762 300.448 79.0614 300.894 79.0614C300.979 79.0614 301.084 79.063 301.21 79.0663C301.336 79.0695 301.431 79.0744 301.496 79.0808V80.2449C301.457 80.2352 301.368 80.2207 301.229 80.2013C301.093 80.1786 300.949 80.1673 300.797 80.1673C300.435 80.1673 300.112 80.2433 299.827 80.3953C299.546 80.5441 299.323 80.751 299.158 81.0162C298.996 81.2781 298.915 81.5772 298.915 81.9135V86.6282H297.771ZM302.853 86.6282V79.1778H303.998V86.6282H302.853ZM303.435 77.9361C303.212 77.9361 303.019 77.8601 302.858 77.7081C302.699 77.5562 302.62 77.3735 302.62 77.16C302.62 76.9466 302.699 76.7639 302.858 76.6119C303.019 76.4599 303.212 76.384 303.435 76.384C303.658 76.384 303.849 76.4599 304.007 76.6119C304.169 76.7639 304.25 76.9466 304.25 77.16C304.25 77.3735 304.169 77.5562 304.007 77.7081C303.849 77.8601 303.658 77.9361 303.435 77.9361ZM308.907 86.7834C308.287 86.7834 307.739 86.6266 307.263 86.3129C306.788 85.996 306.416 85.5498 306.148 84.9742C305.879 84.3953 305.745 83.7114 305.745 82.9224C305.745 82.1399 305.879 81.4608 306.148 80.8852C306.416 80.3096 306.789 79.865 307.268 79.5513C307.747 79.2377 308.3 79.0808 308.927 79.0808C309.412 79.0808 309.795 79.1617 310.076 79.3233C310.361 79.4818 310.578 79.6629 310.726 79.8666C310.878 80.0671 310.996 80.232 311.08 80.3614H311.178V76.6944H312.322V86.6282H311.216V85.4835H311.08C310.996 85.6193 310.877 85.7907 310.722 85.9976C310.566 86.2013 310.345 86.384 310.057 86.5457C309.769 86.7042 309.386 86.7834 308.907 86.7834ZM309.063 85.7551C309.522 85.7551 309.91 85.6354 310.227 85.3962C310.544 85.1536 310.785 84.8189 310.95 84.3921C311.114 83.962 311.197 83.4657 311.197 82.903C311.197 82.3468 311.116 81.8601 310.954 81.443C310.793 81.0226 310.553 80.696 310.237 80.4632C309.92 80.2272 309.528 80.1091 309.063 80.1091C308.578 80.1091 308.173 80.2336 307.85 80.4826C307.53 80.7284 307.289 81.0631 307.127 81.4867C306.969 81.907 306.89 82.3792 306.89 82.903C306.89 83.4333 306.971 83.9151 307.132 84.3484C307.297 84.7785 307.54 85.1213 307.86 85.3767C308.183 85.629 308.584 85.7551 309.063 85.7551ZM316.77 86.8028C316.298 86.8028 315.87 86.7139 315.485 86.536C315.1 86.3549 314.794 86.0946 314.568 85.7551C314.342 85.4123 314.228 84.9984 314.228 84.5134C314.228 84.0865 314.313 83.7405 314.481 83.4754C314.649 83.207 314.874 82.9968 315.155 82.8448C315.436 82.6928 315.747 82.5796 316.086 82.5053C316.429 82.4277 316.773 82.3662 317.119 82.3209C317.572 82.2627 317.939 82.2191 318.22 82.19C318.505 82.1576 318.712 82.1043 318.841 82.0299C318.974 81.9555 319.04 81.8262 319.04 81.6419V81.6031C319.04 81.1245 318.909 80.7526 318.647 80.4875C318.389 80.2223 317.996 80.0897 317.469 80.0897C316.922 80.0897 316.494 80.2094 316.183 80.4487C315.873 80.688 315.655 80.9434 315.528 81.215L314.442 80.827C314.636 80.3743 314.895 80.0218 315.218 79.7696C315.545 79.5141 315.9 79.3363 316.285 79.236C316.673 79.1326 317.055 79.0808 317.43 79.0808C317.669 79.0808 317.944 79.1099 318.254 79.1681C318.568 79.2231 318.87 79.3379 319.161 79.5125C319.456 79.6871 319.7 79.9507 319.894 80.3031C320.088 80.6556 320.185 81.1277 320.185 81.7195V86.6282H319.04V85.6193H318.982C318.904 85.781 318.775 85.954 318.594 86.1383C318.413 86.3226 318.172 86.4794 317.871 86.6088C317.57 86.7381 317.203 86.8028 316.77 86.8028ZM316.945 85.7745C317.397 85.7745 317.779 85.6856 318.089 85.5077C318.403 85.3299 318.639 85.1003 318.798 84.8189C318.959 84.5376 319.04 84.2417 319.04 83.9313V82.8836C318.992 82.9418 318.885 82.9952 318.72 83.0437C318.558 83.0889 318.371 83.1294 318.157 83.1649C317.947 83.1973 317.742 83.2264 317.541 83.2522C317.344 83.2749 317.184 83.2943 317.061 83.3104C316.764 83.3492 316.486 83.4123 316.227 83.4996C315.971 83.5837 315.764 83.7114 315.606 83.8828C315.451 84.051 315.373 84.2805 315.373 84.5716C315.373 84.9693 315.52 85.27 315.815 85.4738C316.112 85.6742 316.489 85.7745 316.945 85.7745ZM322.745 89.4221C322.551 89.4221 322.378 89.4059 322.226 89.3735C322.074 89.3444 321.969 89.3153 321.91 89.2862L322.201 88.2773C322.48 88.3485 322.725 88.3743 322.939 88.3549C323.152 88.3355 323.341 88.2402 323.506 88.0688C323.674 87.9006 323.828 87.6274 323.967 87.249L324.18 86.667L321.425 79.1778H322.667L324.724 85.1148H324.801L326.858 79.1778H328.1L324.937 87.7147C324.795 88.0995 324.619 88.418 324.408 88.6702C324.198 88.9257 323.954 89.1149 323.676 89.2377C323.401 89.3606 323.091 89.4221 322.745 89.4221Z" fill="#3F3B45"/>
<path d="M333.731 81.6613C333.731 80.439 333.89 79.3153 334.206 78.2902C334.527 77.2619 334.983 76.316 335.574 75.4527H336.583C336.35 75.7728 336.132 76.1673 335.928 76.6362C335.728 77.1018 335.552 77.6144 335.4 78.1738C335.248 78.73 335.128 79.3056 335.041 79.9006C334.957 80.4955 334.915 81.0825 334.915 81.6613C334.915 82.4309 334.989 83.2118 335.138 84.0041C335.286 84.7963 335.487 85.532 335.739 86.211C335.991 86.8901 336.273 87.4431 336.583 87.8699H335.574C334.983 87.0065 334.527 86.0623 334.206 85.0372C333.89 84.0089 333.731 82.8836 333.731 81.6613ZM341.609 86.764C340.969 86.764 340.398 86.654 339.897 86.4342C339.399 86.2143 339.003 85.9087 338.709 85.5174C338.418 85.1229 338.259 84.6653 338.234 84.1447H339.456C339.482 84.4649 339.592 84.7413 339.786 84.9742C339.98 85.2037 340.234 85.3816 340.547 85.5077C340.861 85.6338 341.209 85.6969 341.59 85.6969C342.017 85.6969 342.395 85.6225 342.725 85.4738C343.055 85.325 343.314 85.1181 343.501 84.8529C343.689 84.5877 343.783 84.2805 343.783 83.9313C343.783 83.5659 343.692 83.2442 343.511 82.9661C343.33 82.6847 343.065 82.4648 342.715 82.3064C342.366 82.1479 341.939 82.0687 341.435 82.0687H340.639V81.0016H341.435C341.829 81.0016 342.175 80.9305 342.473 80.7882C342.774 80.6459 343.008 80.4454 343.176 80.1867C343.348 79.928 343.433 79.6241 343.433 79.2748C343.433 78.9385 343.359 78.6459 343.21 78.3969C343.061 78.1479 342.851 77.9539 342.58 77.8148C342.311 77.6758 341.994 77.6063 341.629 77.6063C341.286 77.6063 340.963 77.6693 340.659 77.7954C340.358 77.9183 340.112 78.0978 339.922 78.3339C339.731 78.5667 339.627 78.848 339.611 79.1778H338.447C338.466 78.6572 338.623 78.2013 338.917 77.81C339.212 77.4155 339.597 77.1083 340.072 76.8884C340.55 76.6685 341.076 76.5586 341.648 76.5586C342.263 76.5586 342.79 76.6831 343.23 76.9321C343.669 77.1778 344.007 77.5028 344.243 77.907C344.479 78.3112 344.597 78.7478 344.597 79.2166C344.597 79.7761 344.45 80.253 344.156 80.6475C343.865 81.042 343.469 81.3153 342.968 81.4673V81.5449C343.595 81.6483 344.085 81.9151 344.437 82.3452C344.79 82.772 344.966 83.3007 344.966 83.9313C344.966 84.4713 344.819 84.9564 344.525 85.3865C344.234 85.8133 343.836 86.1496 343.331 86.3954C342.827 86.6411 342.253 86.764 341.609 86.764ZM350.054 86.764C349.485 86.764 348.973 86.6508 348.517 86.4245C348.061 86.1981 347.695 85.8877 347.42 85.4932C347.146 85.0987 346.995 84.6492 346.969 84.1447H348.133C348.179 84.5942 348.382 84.9661 348.745 85.2603C349.11 85.5514 349.546 85.6969 350.054 85.6969C350.462 85.6969 350.824 85.6015 351.141 85.4107C351.461 85.2199 351.711 84.958 351.893 84.6249C352.077 84.2886 352.169 83.9087 352.169 83.4851C352.169 83.0518 352.074 82.6653 351.883 82.3258C351.695 81.983 351.437 81.713 351.107 81.5158C350.777 81.3185 350.4 81.2183 349.977 81.215C349.673 81.2118 349.361 81.2587 349.04 81.3557C348.72 81.4495 348.457 81.5707 348.25 81.7195L347.124 81.5837L347.726 76.6944H352.887V77.7615H348.735L348.386 80.6912H348.444C348.648 80.5295 348.903 80.3953 349.21 80.2886C349.517 80.1819 349.838 80.1285 350.171 80.1285C350.779 80.1285 351.32 80.274 351.795 80.5651C352.274 80.8529 352.649 81.2474 352.921 81.7486C353.196 82.2498 353.333 82.8222 353.333 83.4657C353.333 84.0995 353.191 84.6653 352.906 85.1633C352.625 85.6581 352.237 86.0493 351.742 86.3371C351.247 86.6217 350.685 86.764 350.054 86.764ZM357.724 81.6613C357.724 82.8836 357.564 84.0089 357.244 85.0372C356.927 86.0623 356.473 87.0065 355.881 87.8699H354.872C355.105 87.5498 355.321 87.1553 355.522 86.6864C355.726 86.2207 355.903 85.7098 356.055 85.1536C356.207 84.5942 356.325 84.017 356.41 83.422C356.497 82.8238 356.54 82.2369 356.54 81.6613C356.54 80.8917 356.466 80.1107 356.317 79.3185C356.169 78.5263 355.968 77.7906 355.716 77.1115C355.464 76.4325 355.182 75.8795 354.872 75.4527H355.881C356.473 76.316 356.927 77.2619 357.244 78.2902C357.564 79.3153 357.724 80.439 357.724 81.6613Z" fill="#6B6772"/>
<path d="M378.294 86.3971C378.294 87.1797 378.935 87.8201 379.717 87.8201C380.5 87.8201 381.14 87.1797 381.14 86.3971C381.14 85.6145 380.5 84.9741 379.717 84.9741C378.935 84.9741 378.294 85.6145 378.294 86.3971Z" fill="#99959F"/>
<path d="M378.294 77.8593C378.294 78.6419 378.935 79.2823 379.717 79.2823C380.5 79.2823 381.14 78.6419 381.14 77.8593C381.14 77.0766 380.5 76.4363 379.717 76.4363C378.935 76.4363 378.294 77.0766 378.294 77.8593Z" fill="#99959F"/>
<path d="M379.717 83.5512C378.935 83.5512 378.294 82.9108 378.294 82.1282C378.294 81.3456 378.935 80.7052 379.717 80.7052C380.5 80.7052 381.14 81.3456 381.14 82.1282C381.14 82.9108 380.5 83.5512 379.717 83.5512Z" fill="#99959F"/>
<path d="M202.858 102.617V61.6396H194.322V102.617H202.858Z" fill="#DEDAE5" mask="url(#path-21-inside-1_2038_617537)"/>
</g>
<rect x="197.952" y="61.0014" width="206.308" height="42.2533" rx="7.46773" stroke="black" stroke-opacity="0.1" stroke-width="1.27649" shape-rendering="crispEdges"/>
</g>
<g filter="url(#filter4_d_2038_617537)">
<g clip-path="url(#clip4_2038_617537)">
<mask id="path-30-inside-2_2038_617537" fill="white">
<path d="M9.63232 116.279H215.032V157.319H9.63232V116.279Z"/>
</mask>
<path d="M9.63232 116.279H215.032V157.319H9.63232V116.279Z" fill="white"/>
<path d="M31.7198 133.949V133.237C31.7198 132.309 31.7198 131.845 31.8385 131.468C32.0901 130.67 32.7153 130.045 33.5134 129.793C33.89 129.674 34.3541 129.674 35.2823 129.674V129.674C36.2104 129.674 36.6745 129.674 37.0511 129.793C37.8492 130.045 38.4744 130.67 38.726 131.468C38.8448 131.845 38.8448 132.309 38.8448 133.237V133.949M35.2823 138.224V139.649M33.8572 143.924H36.7072C38.1671 143.924 38.897 143.924 39.4794 143.705C40.4012 143.358 41.1286 142.631 41.4755 141.709C41.6948 141.127 41.6948 140.397 41.6948 138.937V138.937C41.6948 137.477 41.6948 136.747 41.4755 136.165C41.1286 135.243 40.4012 134.515 39.4794 134.169C38.897 133.949 38.1671 133.949 36.7073 133.949H33.8573C32.3974 133.949 31.6675 133.949 31.0851 134.169C30.1633 134.515 29.4359 135.243 29.089 136.165C28.8698 136.747 28.8698 137.477 28.8698 138.937V138.937C28.8698 140.397 28.8698 141.127 29.089 141.709C29.4359 142.631 30.1633 143.358 31.0851 143.705C31.6675 143.924 32.3974 143.924 33.8572 143.924Z" stroke="#99959F" stroke-width="1.2825" stroke-linecap="round"/>
<path d="M55.9016 133.837L57.6893 136.888L59.477 133.837H60.7984L58.3888 137.568L60.7984 141.299H59.477L57.6893 138.404L55.9016 141.299H54.5802L56.9509 137.568L54.5802 133.837H55.9016ZM62.4343 141.299V133.837H63.5419V135.003H63.6391C63.7945 134.605 64.0455 134.296 64.392 134.076C64.7386 133.852 65.1547 133.74 65.6405 133.74C66.1328 133.74 66.5425 133.852 66.8696 134.076C67.1999 134.296 67.4574 134.605 67.642 135.003H67.7197C67.9108 134.618 68.1974 134.312 68.5796 134.085C68.9618 133.855 69.42 133.74 69.9544 133.74C70.6216 133.74 71.1673 133.949 71.5915 134.367C72.0158 134.782 72.2279 135.428 72.2279 136.305V141.299H71.0814V136.305C71.0814 135.755 70.9309 135.361 70.6297 135.125C70.3285 134.888 69.9738 134.77 69.5658 134.77C69.0411 134.77 68.6347 134.929 68.3464 135.246C68.0582 135.56 67.9141 135.959 67.9141 136.441V141.299H66.7482V136.189C66.7482 135.764 66.6105 135.423 66.3352 135.164C66.0599 134.901 65.7053 134.77 65.2713 134.77C64.9734 134.77 64.6949 134.85 64.4358 135.008C64.1799 135.167 63.9726 135.387 63.8139 135.669C63.6585 135.947 63.5808 136.27 63.5808 136.636V141.299H62.4343ZM76.5199 141.474C76.0471 141.474 75.618 141.385 75.2326 141.207C74.8472 141.026 74.5411 140.765 74.3144 140.425C74.0877 140.082 73.9744 139.667 73.9744 139.181C73.9744 138.754 74.0586 138.407 74.227 138.142C74.3954 137.873 74.6205 137.662 74.9022 137.51C75.184 137.358 75.4949 137.245 75.835 137.17C76.1783 137.092 76.5232 137.031 76.8697 136.985C77.3231 136.927 77.6907 136.883 77.9725 136.854C78.2575 136.822 78.4647 136.768 78.5943 136.694C78.7271 136.619 78.7935 136.49 78.7935 136.305V136.266C78.7935 135.787 78.6623 135.415 78.4 135.149C78.1409 134.884 77.7474 134.751 77.2195 134.751C76.6721 134.751 76.243 134.871 75.9321 135.11C75.6212 135.35 75.4026 135.606 75.2763 135.878L74.1881 135.489C74.3824 135.036 74.6415 134.683 74.9654 134.43C75.2925 134.174 75.6487 133.996 76.0341 133.896C76.4228 133.792 76.8049 133.74 77.1806 133.74C77.4203 133.74 77.6956 133.769 78.0065 133.828C78.3206 133.883 78.6234 133.998 78.9149 134.173C79.2096 134.348 79.4541 134.612 79.6485 134.965C79.8428 135.318 79.9399 135.79 79.9399 136.383V141.299H78.7935V140.289H78.7352C78.6574 140.451 78.5279 140.624 78.3465 140.809C78.1652 140.993 77.9239 141.15 77.6227 141.28C77.3215 141.409 76.9539 141.474 76.5199 141.474ZM76.6948 140.444C77.1482 140.444 77.5304 140.355 77.8413 140.177C78.1554 139.999 78.3919 139.769 78.5506 139.487C78.7125 139.206 78.7935 138.909 78.7935 138.598V137.549C78.7449 137.607 78.638 137.661 78.4728 137.709C78.3109 137.755 78.1231 137.795 77.9093 137.831C77.6988 137.863 77.4931 137.892 77.2923 137.918C77.0948 137.941 76.9345 137.96 76.8114 137.976C76.5135 138.015 76.2349 138.078 75.9758 138.166C75.72 138.25 75.5127 138.378 75.354 138.55C75.1986 138.718 75.1208 138.948 75.1208 139.24C75.1208 139.638 75.2682 139.939 75.5629 140.143C75.8609 140.344 76.2382 140.444 76.6948 140.444ZM87.3179 135.509L86.2881 135.8C86.2233 135.628 86.1277 135.462 86.0014 135.3C85.8784 135.135 85.71 134.999 85.4962 134.892C85.2825 134.785 85.0088 134.731 84.6752 134.731C84.2186 134.731 83.838 134.837 83.5336 135.047C83.2324 135.254 83.0818 135.518 83.0818 135.839C83.0818 136.124 83.1854 136.349 83.3927 136.514C83.6 136.679 83.9239 136.817 84.3643 136.927L85.4719 137.199C86.1391 137.361 86.6362 137.609 86.9633 137.942C87.2904 138.273 87.454 138.699 87.454 139.22C87.454 139.648 87.3309 140.03 87.0848 140.367C86.8419 140.703 86.5018 140.969 86.0646 141.163C85.6274 141.358 85.1189 141.455 84.5392 141.455C83.7781 141.455 83.1482 141.29 82.6495 140.959C82.1507 140.629 81.8349 140.146 81.7022 139.512L82.7903 139.24C82.894 139.641 83.0899 139.942 83.3781 140.143C83.6696 140.344 84.0502 140.444 84.5198 140.444C85.0541 140.444 85.4784 140.331 85.7925 140.104C86.1099 139.874 86.2686 139.599 86.2686 139.278C86.2686 139.019 86.1779 138.802 85.9966 138.627C85.8152 138.449 85.5367 138.317 85.161 138.229L83.9174 137.938C83.234 137.776 82.732 137.525 82.4114 137.185C82.094 136.841 81.9353 136.412 81.9353 135.897C81.9353 135.476 82.0535 135.104 82.29 134.78C82.5296 134.456 82.8551 134.202 83.2664 134.017C83.681 133.833 84.1506 133.74 84.6752 133.74C85.4136 133.74 85.9933 133.902 86.4144 134.226C86.8386 134.55 87.1398 134.977 87.3179 135.509ZM98.3127 135.509L97.2828 135.8C97.2181 135.628 97.1225 135.462 96.9962 135.3C96.8731 135.135 96.7047 134.999 96.491 134.892C96.2772 134.785 96.0036 134.731 95.67 134.731C95.2133 134.731 94.8328 134.837 94.5284 135.047C94.2272 135.254 94.0766 135.518 94.0766 135.839C94.0766 136.124 94.1802 136.349 94.3875 136.514C94.5948 136.679 94.9186 136.817 95.3591 136.927L96.4667 137.199C97.1338 137.361 97.631 137.609 97.9581 137.942C98.2852 138.273 98.4487 138.699 98.4487 139.22C98.4487 139.648 98.3257 140.03 98.0795 140.367C97.8366 140.703 97.4966 140.969 97.0594 141.163C96.6221 141.358 96.1137 141.455 95.534 141.455C94.7729 141.455 94.143 141.29 93.6442 140.959C93.1455 140.629 92.8297 140.146 92.6969 139.512L93.7851 139.24C93.8887 139.641 94.0847 139.942 94.3729 140.143C94.6644 140.344 95.0449 140.444 95.5145 140.444C96.0489 140.444 96.4732 140.331 96.7873 140.104C97.1047 139.874 97.2634 139.599 97.2634 139.278C97.2634 139.019 97.1727 138.802 96.9913 138.627C96.81 138.449 96.5315 138.317 96.1558 138.229L94.9121 137.938C94.2288 137.776 93.7268 137.525 93.4062 137.185C93.0888 136.841 92.9301 136.412 92.9301 135.897C92.9301 135.476 93.0483 135.104 93.2847 134.78C93.5244 134.456 93.8499 134.202 94.2612 134.017C94.6757 133.833 95.1453 133.74 95.67 133.74C96.4084 133.74 96.9881 133.902 97.4091 134.226C97.8334 134.55 98.1346 134.977 98.3127 135.509ZM101.321 136.811V141.299H100.175V131.35H101.321V135.003H101.418C101.593 134.618 101.855 134.312 102.205 134.085C102.558 133.855 103.028 133.74 103.614 133.74C104.122 133.74 104.568 133.842 104.95 134.046C105.332 134.247 105.628 134.556 105.839 134.974C106.053 135.389 106.16 135.917 106.16 136.558V141.299H105.013V136.636C105.013 136.043 104.859 135.585 104.552 135.261C104.247 134.934 103.824 134.77 103.284 134.77C102.908 134.77 102.571 134.85 102.273 135.008C101.978 135.167 101.745 135.399 101.574 135.703C101.405 136.007 101.321 136.377 101.321 136.811ZM111.288 141.455C110.615 141.455 110.024 141.294 109.515 140.974C109.01 140.653 108.615 140.205 108.33 139.628C108.048 139.052 107.907 138.378 107.907 137.607C107.907 136.83 108.048 136.152 108.33 135.572C108.615 134.992 109.01 134.542 109.515 134.221C110.024 133.901 110.615 133.74 111.288 133.74C111.962 133.74 112.551 133.901 113.057 134.221C113.565 134.542 113.96 134.992 114.242 135.572C114.527 136.152 114.669 136.83 114.669 137.607C114.669 138.378 114.527 139.052 114.242 139.628C113.96 140.205 113.565 140.653 113.057 140.974C112.551 141.294 111.962 141.455 111.288 141.455ZM111.288 140.425C111.8 140.425 112.221 140.294 112.551 140.031C112.882 139.769 113.126 139.424 113.285 138.997C113.444 138.569 113.523 138.106 113.523 137.607C113.523 137.109 113.444 136.644 113.285 136.213C113.126 135.782 112.882 135.434 112.551 135.169C112.221 134.903 111.8 134.77 111.288 134.77C110.777 134.77 110.356 134.903 110.025 135.169C109.695 135.434 109.45 135.782 109.292 136.213C109.133 136.644 109.054 137.109 109.054 137.607C109.054 138.106 109.133 138.569 109.292 138.997C109.45 139.424 109.695 139.769 110.025 140.031C110.356 140.294 110.777 140.425 111.288 140.425ZM116.42 141.299V133.837H117.527V134.965H117.605C117.741 134.595 117.987 134.296 118.343 134.066C118.7 133.836 119.101 133.721 119.548 133.721C119.632 133.721 119.738 133.723 119.864 133.726C119.99 133.729 120.086 133.734 120.15 133.74V134.906C120.112 134.897 120.023 134.882 119.883 134.863C119.747 134.84 119.603 134.829 119.451 134.829C119.088 134.829 118.764 134.905 118.479 135.057C118.198 135.206 117.974 135.413 117.809 135.679C117.647 135.941 117.566 136.241 117.566 136.577V141.299H116.42ZM125.222 133.837V134.809H121.355V133.837H125.222ZM122.482 132.05H123.629V139.162C123.629 139.486 123.676 139.729 123.77 139.891C123.867 140.049 123.99 140.156 124.139 140.211C124.291 140.263 124.451 140.289 124.62 140.289C124.746 140.289 124.85 140.282 124.931 140.269C125.012 140.253 125.076 140.24 125.125 140.231L125.358 141.26C125.28 141.29 125.172 141.319 125.033 141.348C124.893 141.38 124.717 141.396 124.503 141.396C124.179 141.396 123.862 141.327 123.551 141.188C123.243 141.048 122.987 140.836 122.783 140.551C122.583 140.266 122.482 139.907 122.482 139.473V132.05ZM128.253 131.35V141.299H127.107V131.35H128.253ZM130.353 141.299V133.837H131.5V141.299H130.353ZM130.936 132.594C130.713 132.594 130.52 132.518 130.358 132.366C130.2 132.213 130.12 132.03 130.12 131.817C130.12 131.603 130.2 131.42 130.358 131.268C130.52 131.115 130.713 131.039 130.936 131.039C131.16 131.039 131.351 131.115 131.51 131.268C131.671 131.42 131.752 131.603 131.752 131.817C131.752 132.03 131.671 132.213 131.51 132.366C131.351 132.518 131.16 132.594 130.936 132.594ZM138.885 135.509L137.855 135.8C137.79 135.628 137.695 135.462 137.569 135.3C137.446 135.135 137.277 134.999 137.063 134.892C136.85 134.785 136.576 134.731 136.242 134.731C135.786 134.731 135.405 134.837 135.101 135.047C134.8 135.254 134.649 135.518 134.649 135.839C134.649 136.124 134.753 136.349 134.96 136.514C135.167 136.679 135.491 136.817 135.931 136.927L137.039 137.199C137.706 137.361 138.203 137.609 138.531 137.942C138.858 138.273 139.021 138.699 139.021 139.22C139.021 139.648 138.898 140.03 138.652 140.367C138.409 140.703 138.069 140.969 137.632 141.163C137.195 141.358 136.686 141.455 136.106 141.455C135.345 141.455 134.715 141.29 134.217 140.959C133.718 140.629 133.402 140.146 133.269 139.512L134.358 139.24C134.461 139.641 134.657 139.942 134.945 140.143C135.237 140.344 135.617 140.444 136.087 140.444C136.621 140.444 137.046 140.331 137.36 140.104C137.677 139.874 137.836 139.599 137.836 139.278C137.836 139.019 137.745 138.802 137.564 138.627C137.382 138.449 137.104 138.317 136.728 138.229L135.485 137.938C134.801 137.776 134.299 137.525 133.979 137.185C133.661 136.841 133.503 136.412 133.503 135.897C133.503 135.476 133.621 135.104 133.857 134.78C134.097 134.456 134.422 134.202 134.834 134.017C135.248 133.833 135.718 133.74 136.242 133.74C136.981 133.74 137.561 133.902 137.982 134.226C138.406 134.55 138.707 134.977 138.885 135.509ZM143.992 133.837V134.809H140.125V133.837H143.992ZM141.252 132.05H142.399V139.162C142.399 139.486 142.446 139.729 142.54 139.891C142.637 140.049 142.76 140.156 142.909 140.211C143.061 140.263 143.221 140.289 143.39 140.289C143.516 140.289 143.62 140.282 143.701 140.269C143.782 140.253 143.846 140.24 143.895 140.231L144.128 141.26C144.05 141.29 143.942 141.319 143.803 141.348C143.663 141.38 143.487 141.396 143.273 141.396C142.949 141.396 142.632 141.327 142.321 141.188C142.013 141.048 141.757 140.836 141.553 140.551C141.353 140.266 141.252 139.907 141.252 139.473V132.05Z" fill="#3F3B45"/>
<path d="M150.185 136.325C150.185 135.101 150.344 133.975 150.661 132.948C150.982 131.919 151.439 130.971 152.031 130.107H153.042C152.809 130.427 152.59 130.822 152.386 131.292C152.185 131.758 152.009 132.272 151.856 132.832C151.704 133.389 151.584 133.965 151.497 134.561C151.413 135.157 151.371 135.745 151.371 136.325C151.371 137.096 151.445 137.878 151.594 138.671C151.743 139.465 151.944 140.201 152.196 140.882C152.449 141.562 152.731 142.115 153.042 142.543H152.031C151.439 141.678 150.982 140.733 150.661 139.706C150.344 138.676 150.185 137.549 150.185 136.325ZM158.212 131.35V141.299H157.007V132.613H156.949L154.52 134.226V133.002L157.007 131.35H158.212ZM160.84 139.259V138.268L165.212 131.35H165.931V132.885H165.445L162.142 138.112V138.19H168.03V139.259H160.84ZM165.523 141.299V138.958V138.496V131.35H166.67V141.299H165.523ZM172.318 136.325C172.318 137.549 172.158 138.676 171.837 139.706C171.52 140.733 171.065 141.678 170.472 142.543H169.462C169.695 142.222 169.912 141.827 170.113 141.358C170.317 140.891 170.495 140.38 170.647 139.822C170.799 139.262 170.917 138.684 171.002 138.088C171.089 137.489 171.133 136.901 171.133 136.325C171.133 135.554 171.058 134.772 170.909 133.978C170.76 133.185 170.56 132.448 170.307 131.768C170.054 131.088 169.773 130.534 169.462 130.107H170.472C171.065 130.971 171.52 131.919 171.837 132.948C172.158 133.975 172.318 135.101 172.318 136.325Z" fill="#6B6772"/>
<path d="M189.667 141.074C189.667 141.858 190.308 142.499 191.092 142.499C191.876 142.499 192.517 141.858 192.517 141.074C192.517 140.291 191.876 139.649 191.092 139.649C190.308 139.649 189.667 140.291 189.667 141.074Z" fill="#99959F"/>
<path d="M189.667 132.524C189.667 133.308 190.308 133.949 191.092 133.949C191.876 133.949 192.517 133.308 192.517 132.524C192.517 131.741 191.876 131.099 191.092 131.099C190.308 131.099 189.667 131.741 189.667 132.524Z" fill="#99959F"/>
<path d="M191.092 138.224C190.308 138.224 189.667 137.583 189.667 136.799C189.667 136.016 190.308 135.374 191.092 135.374C191.876 135.374 192.517 136.016 192.517 136.799C192.517 137.583 191.876 138.224 191.092 138.224Z" fill="#99959F"/>
<path d="M13.9073 157.319V116.279H5.35732V157.319H13.9073Z" fill="#813BE1" mask="url(#path-30-inside-2_2038_617537)"/>
</g>
<rect x="9.02599" y="115.673" width="206.613" height="42.2527" rx="7.09434" stroke="black" stroke-opacity="0.1" stroke-width="1.21267" shape-rendering="crispEdges"/>
</g>
<g filter="url(#filter5_d_2038_617537)">
<rect x="229.032" y="116.279" width="163.64" height="40.9807" rx="6.82948" fill="white" shape-rendering="crispEdges"/>
<g clip-path="url(#clip5_2038_617537)">
<rect x="232.447" y="119.694" width="34.1513" height="34.1513" rx="3.41513" fill="#202020" fill-opacity="0.2"/>
<path d="M255.032 80.9358L287.075 98.1986C287.972 98.6817 288.012 99.971 287.147 100.543L238.207 132.956C238.166 132.984 238.127 133.012 238.09 133.043L227.99 139.475C227.37 139.919 227.782 140.701 228.55 140.555C229.301 140.413 240.333 138.228 242.437 137.542L255.306 144.475C256.29 145.004 256.217 146.461 255.184 146.926L183.242 179.364C181.877 179.98 180.711 178.251 181.763 177.171L211.541 146.584C212.177 145.93 212.027 144.852 211.24 144.428L198.957 137.811C198.162 137.383 198.019 136.289 198.673 135.639L253.447 81.1784C253.873 80.7555 254.515 80.6571 255.032 80.9358Z" fill="white" fill-opacity="0.5"/>
</g>
<path d="M286.54 136.303C286.54 137.351 286.351 138.256 285.972 139.019C285.594 139.782 285.075 140.371 284.415 140.785C283.756 141.199 283.002 141.406 282.155 141.406C281.308 141.406 280.554 141.199 279.895 140.785C279.235 140.371 278.716 139.782 278.338 139.019C277.959 138.256 277.77 137.351 277.77 136.303C277.77 135.255 277.959 134.35 278.338 133.587C278.716 132.823 279.235 132.235 279.895 131.821C280.554 131.407 281.308 131.2 282.155 131.2C283.002 131.2 283.756 131.407 284.415 131.821C285.075 132.235 285.594 132.823 285.972 133.587C286.351 134.35 286.54 135.255 286.54 136.303ZM285.376 136.303C285.376 135.443 285.232 134.717 284.944 134.125C284.66 133.533 284.273 133.085 283.785 132.781C283.3 132.477 282.757 132.325 282.155 132.325C281.554 132.325 281.009 132.477 280.521 132.781C280.035 133.085 279.649 133.533 279.361 134.125C279.077 134.717 278.934 135.443 278.934 136.303C278.934 137.163 279.077 137.889 279.361 138.481C279.649 139.073 280.035 139.52 280.521 139.824C281.009 140.128 281.554 140.28 282.155 140.28C282.757 140.28 283.3 140.128 283.785 139.824C284.273 139.52 284.66 139.073 284.944 138.481C285.232 137.889 285.376 137.163 285.376 136.303ZM293.103 138.224V133.819H294.247V141.27H293.103V140.009H293.025C292.85 140.387 292.579 140.709 292.21 140.974C291.842 141.236 291.376 141.367 290.813 141.367C290.348 141.367 289.934 141.265 289.572 141.061C289.209 140.854 288.925 140.544 288.718 140.13C288.511 139.713 288.407 139.187 288.407 138.554V133.819H289.552V138.476C289.552 139.019 289.704 139.452 290.008 139.776C290.315 140.099 290.707 140.261 291.182 140.261C291.466 140.261 291.756 140.188 292.05 140.043C292.348 139.897 292.597 139.674 292.797 139.373C293.001 139.073 293.103 138.689 293.103 138.224ZM299.584 133.819V134.79H295.723V133.819H299.584ZM296.848 132.034H297.993V139.136C297.993 139.459 298.04 139.701 298.134 139.863C298.231 140.022 298.354 140.128 298.502 140.183C298.654 140.235 298.815 140.261 298.983 140.261C299.109 140.261 299.212 140.254 299.293 140.241C299.374 140.225 299.439 140.212 299.487 140.203L299.72 141.231C299.642 141.26 299.534 141.289 299.395 141.318C299.256 141.351 299.08 141.367 298.866 141.367C298.543 141.367 298.226 141.297 297.916 141.158C297.608 141.019 297.353 140.807 297.149 140.523C296.949 140.238 296.848 139.879 296.848 139.446V132.034ZM308.174 141.425C307.502 141.425 306.912 141.265 306.404 140.945C305.899 140.625 305.505 140.177 305.22 139.601C304.939 139.026 304.798 138.353 304.798 137.583C304.798 136.807 304.939 136.13 305.22 135.551C305.505 134.972 305.899 134.523 306.404 134.203C306.912 133.882 307.502 133.722 308.174 133.722C308.847 133.722 309.435 133.882 309.94 134.203C310.448 134.523 310.842 134.972 311.123 135.551C311.408 136.13 311.55 136.807 311.55 137.583C311.55 138.353 311.408 139.026 311.123 139.601C310.842 140.177 310.448 140.625 309.94 140.945C309.435 141.265 308.847 141.425 308.174 141.425ZM308.174 140.397C308.685 140.397 309.106 140.266 309.435 140.004C309.765 139.742 310.009 139.397 310.168 138.971C310.326 138.544 310.406 138.081 310.406 137.583C310.406 137.085 310.326 136.621 310.168 136.191C310.009 135.761 309.765 135.414 309.435 135.148C309.106 134.883 308.685 134.751 308.174 134.751C307.663 134.751 307.243 134.883 306.913 135.148C306.583 135.414 306.339 135.761 306.181 136.191C306.022 136.621 305.943 137.085 305.943 137.583C305.943 138.081 306.022 138.544 306.181 138.971C306.339 139.397 306.583 139.742 306.913 140.004C307.243 140.266 307.663 140.397 308.174 140.397ZM316.615 133.819V134.79H312.599V133.819H316.615ZM313.802 141.27V132.791C313.802 132.364 313.902 132.009 314.103 131.724C314.303 131.439 314.564 131.226 314.884 131.084C315.204 130.941 315.542 130.87 315.897 130.87C316.179 130.87 316.408 130.893 316.586 130.938C316.764 130.984 316.897 131.026 316.984 131.064L316.654 132.054C316.596 132.034 316.515 132.01 316.412 131.981C316.311 131.952 316.179 131.937 316.014 131.937C315.636 131.937 315.362 132.033 315.194 132.224C315.029 132.414 314.947 132.694 314.947 133.063V141.27H313.802ZM327.339 135.488L326.31 135.779C326.246 135.608 326.15 135.441 326.024 135.279C325.901 135.115 325.733 134.979 325.52 134.872C325.306 134.765 325.033 134.712 324.7 134.712C324.244 134.712 323.864 134.817 323.56 135.027C323.259 135.234 323.109 135.498 323.109 135.818C323.109 136.102 323.212 136.327 323.419 136.492C323.626 136.657 323.95 136.794 324.389 136.904L325.495 137.176C326.162 137.338 326.658 137.585 326.984 137.918C327.311 138.248 327.474 138.673 327.474 139.194C327.474 139.621 327.352 140.002 327.106 140.338C326.863 140.675 326.524 140.94 326.087 141.134C325.651 141.328 325.143 141.425 324.564 141.425C323.804 141.425 323.175 141.26 322.677 140.93C322.179 140.6 321.864 140.119 321.731 139.485L322.818 139.213C322.921 139.614 323.117 139.915 323.405 140.115C323.696 140.316 324.076 140.416 324.545 140.416C325.078 140.416 325.502 140.303 325.816 140.077C326.132 139.847 326.291 139.572 326.291 139.252C326.291 138.993 326.2 138.777 326.019 138.602C325.838 138.424 325.56 138.292 325.185 138.204L323.943 137.913C323.261 137.752 322.76 137.501 322.44 137.161C322.123 136.819 321.964 136.39 321.964 135.876C321.964 135.456 322.082 135.084 322.318 134.76C322.558 134.437 322.883 134.183 323.293 133.999C323.707 133.815 324.176 133.722 324.7 133.722C325.437 133.722 326.016 133.884 326.436 134.207C326.86 134.531 327.161 134.958 327.339 135.488ZM332.438 133.819V134.79H328.577V133.819H332.438ZM329.702 132.034H330.847V139.136C330.847 139.459 330.894 139.701 330.987 139.863C331.084 140.022 331.207 140.128 331.356 140.183C331.508 140.235 331.668 140.261 331.836 140.261C331.962 140.261 332.066 140.254 332.147 140.241C332.227 140.225 332.292 140.212 332.341 140.203L332.573 141.231C332.496 141.26 332.388 141.289 332.248 141.318C332.109 141.351 331.933 141.367 331.72 141.367C331.396 141.367 331.08 141.297 330.769 141.158C330.462 141.019 330.206 140.807 330.003 140.523C329.802 140.238 329.702 139.879 329.702 139.446V132.034ZM337.106 141.425C336.434 141.425 335.843 141.265 335.336 140.945C334.831 140.625 334.437 140.177 334.152 139.601C333.871 139.026 333.73 138.353 333.73 137.583C333.73 136.807 333.871 136.13 334.152 135.551C334.437 134.972 334.831 134.523 335.336 134.203C335.843 133.882 336.434 133.722 337.106 133.722C337.779 133.722 338.367 133.882 338.872 134.203C339.379 134.523 339.774 134.972 340.055 135.551C340.34 136.13 340.482 136.807 340.482 137.583C340.482 138.353 340.34 139.026 340.055 139.601C339.774 140.177 339.379 140.625 338.872 140.945C338.367 141.265 337.779 141.425 337.106 141.425ZM337.106 140.397C337.617 140.397 338.038 140.266 338.367 140.004C338.697 139.742 338.941 139.397 339.1 138.971C339.258 138.544 339.337 138.081 339.337 137.583C339.337 137.085 339.258 136.621 339.1 136.191C338.941 135.761 338.697 135.414 338.367 135.148C338.038 134.883 337.617 134.751 337.106 134.751C336.595 134.751 336.175 134.883 335.845 135.148C335.515 135.414 335.271 135.761 335.113 136.191C334.954 136.621 334.875 137.085 334.875 137.583C334.875 138.081 334.954 138.544 335.113 138.971C335.271 139.397 335.515 139.742 335.845 140.004C336.175 140.266 336.595 140.397 337.106 140.397ZM345.256 141.425C344.558 141.425 343.956 141.26 343.452 140.93C342.947 140.6 342.559 140.146 342.288 139.567C342.016 138.988 341.88 138.327 341.88 137.583C341.88 136.827 342.019 136.159 342.297 135.58C342.579 134.998 342.97 134.544 343.471 134.217C343.976 133.887 344.564 133.722 345.237 133.722C345.761 133.722 346.233 133.819 346.653 134.013C347.074 134.207 347.418 134.479 347.686 134.828C347.955 135.178 348.121 135.585 348.186 136.051H347.041C346.954 135.711 346.76 135.41 346.459 135.148C346.162 134.883 345.761 134.751 345.256 134.751C344.81 134.751 344.419 134.867 344.082 135.1C343.749 135.33 343.489 135.655 343.301 136.075C343.117 136.492 343.025 136.982 343.025 137.545C343.025 138.12 343.116 138.621 343.297 139.048C343.481 139.475 343.74 139.807 344.073 140.043C344.409 140.279 344.804 140.397 345.256 140.397C345.554 140.397 345.824 140.345 346.066 140.241C346.309 140.138 346.514 139.989 346.682 139.795C346.85 139.601 346.97 139.368 347.041 139.097H348.186C348.121 139.537 347.961 139.933 347.706 140.285C347.454 140.634 347.119 140.912 346.702 141.119C346.288 141.323 345.806 141.425 345.256 141.425ZM350.926 138.554L350.907 137.137H351.14L354.399 133.819H355.816L352.343 137.331H352.246L350.926 138.554ZM349.859 141.27V131.336H351.004V141.27H349.859ZM354.593 141.27L351.683 137.583L352.498 136.788L356.049 141.27H354.593Z" fill="#3F3B45"/>
<path d="M361.638 136.303C361.638 135.081 361.796 133.957 362.113 132.932C362.433 131.903 362.889 130.958 363.481 130.094H364.49C364.257 130.414 364.039 130.809 363.835 131.278C363.635 131.743 363.458 132.256 363.306 132.815C363.154 133.372 363.035 133.947 362.947 134.542C362.863 135.137 362.821 135.724 362.821 136.303C362.821 137.072 362.896 137.853 363.044 138.646C363.193 139.438 363.394 140.174 363.646 140.853C363.898 141.532 364.179 142.085 364.49 142.511H363.481C362.889 141.648 362.433 140.704 362.113 139.679C361.796 138.651 361.638 137.525 361.638 136.303ZM365.927 139.233V138.243L370.292 131.336H371.01V132.869H370.525L367.227 138.088V138.165H373.106V139.233H365.927ZM370.603 141.27V138.932V138.471V131.336H371.747V141.27H370.603ZM377.387 136.303C377.387 137.525 377.227 138.651 376.907 139.679C376.59 140.704 376.136 141.648 375.544 142.511H374.535C374.768 142.191 374.985 141.797 375.185 141.328C375.389 140.862 375.567 140.351 375.719 139.795C375.871 139.236 375.989 138.659 376.073 138.064C376.16 137.465 376.204 136.878 376.204 136.303C376.204 135.533 376.129 134.752 375.981 133.96C375.832 133.168 375.631 132.432 375.379 131.753C375.127 131.074 374.846 130.521 374.535 130.094H375.544C376.136 130.958 376.59 131.903 376.907 132.932C377.227 133.957 377.387 135.081 377.387 136.303Z" fill="#6B6772"/>
<rect x="228.394" y="115.641" width="164.916" height="42.2572" rx="7.46773" stroke="black" stroke-opacity="0.1" stroke-width="1.27649" shape-rendering="crispEdges"/>
</g>
<defs>
<filter id="filter0_d_2038_617537" x="0.696868" y="0.617411" width="139.17" height="58.8519" filterUnits="userSpaceOnUse" color-interpolation-filters="sRGB">
<feFlood flood-opacity="0" result="BackgroundImageFix"/>
<feColorMatrix in="SourceAlpha" type="matrix" values="0 0 0 0 0 0 0 0 0 0 0 0 0 0 0 0 0 0 127 0" result="hardAlpha"/>
<feMorphology radius="2.55299" operator="erode" in="SourceAlpha" result="effect1_dropShadow_2038_617537"/>
<feOffset dy="2.55299"/>
<feGaussianBlur stdDeviation="5.10598"/>
<feComposite in2="hardAlpha" operator="out"/>
<feColorMatrix type="matrix" values="0 0 0 0 0 0 0 0 0 0 0 0 0 0 0 0 0 0 0.08 0"/>
<feBlend mode="normal" in2="BackgroundImageFix" result="effect1_dropShadow_2038_617537"/>
<feBlend mode="normal" in="SourceGraphic" in2="effect1_dropShadow_2038_617537" result="shape"/>
</filter>
<filter id="filter1_d_2038_617537" x="135.655" y="0.617411" width="188.17" height="58.8519" filterUnits="userSpaceOnUse" color-interpolation-filters="sRGB">
<feFlood flood-opacity="0" result="BackgroundImageFix"/>
<feColorMatrix in="SourceAlpha" type="matrix" values="0 0 0 0 0 0 0 0 0 0 0 0 0 0 0 0 0 0 127 0" result="hardAlpha"/>
<feMorphology radius="2.55299" operator="erode" in="SourceAlpha" result="effect1_dropShadow_2038_617537"/>
<feOffset dy="2.55299"/>
<feGaussianBlur stdDeviation="5.10598"/>
<feComposite in2="hardAlpha" operator="out"/>
<feColorMatrix type="matrix" values="0 0 0 0 0 0 0 0 0 0 0 0 0 0 0 0 0 0 0.08 0"/>
<feBlend mode="normal" in2="BackgroundImageFix" result="effect1_dropShadow_2038_617537"/>
<feBlend mode="normal" in="SourceGraphic" in2="effect1_dropShadow_2038_617537" result="shape"/>
</filter>
<filter id="filter2_d_2038_617537" x="0.696868" y="55.2571" width="193.17" height="58.8519" filterUnits="userSpaceOnUse" color-interpolation-filters="sRGB">
<feFlood flood-opacity="0" result="BackgroundImageFix"/>
<feColorMatrix in="SourceAlpha" type="matrix" values="0 0 0 0 0 0 0 0 0 0 0 0 0 0 0 0 0 0 127 0" result="hardAlpha"/>
<feMorphology radius="2.55299" operator="erode" in="SourceAlpha" result="effect1_dropShadow_2038_617537"/>
<feOffset dy="2.55299"/>
<feGaussianBlur stdDeviation="5.10598"/>
<feComposite in2="hardAlpha" operator="out"/>
<feColorMatrix type="matrix" values="0 0 0 0 0 0 0 0 0 0 0 0 0 0 0 0 0 0 0.08 0"/>
<feBlend mode="normal" in2="BackgroundImageFix" result="effect1_dropShadow_2038_617537"/>
<feBlend mode="normal" in="SourceGraphic" in2="effect1_dropShadow_2038_617537" result="shape"/>
</filter>
<filter id="filter3_d_2038_617537" x="189.655" y="55.2571" width="222.902" height="58.848" filterUnits="userSpaceOnUse" color-interpolation-filters="sRGB">
<feFlood flood-opacity="0" result="BackgroundImageFix"/>
<feColorMatrix in="SourceAlpha" type="matrix" values="0 0 0 0 0 0 0 0 0 0 0 0 0 0 0 0 0 0 127 0" result="hardAlpha"/>
<feMorphology radius="2.55299" operator="erode" in="SourceAlpha" result="effect1_dropShadow_2038_617537"/>
<feOffset dy="2.55299"/>
<feGaussianBlur stdDeviation="5.10598"/>
<feComposite in2="hardAlpha" operator="out"/>
<feColorMatrix type="matrix" values="0 0 0 0 0 0 0 0 0 0 0 0 0 0 0 0 0 0 0.08 0"/>
<feBlend mode="normal" in2="BackgroundImageFix" result="effect1_dropShadow_2038_617537"/>
<feBlend mode="normal" in="SourceGraphic" in2="effect1_dropShadow_2038_617537" result="shape"/>
</filter>
<filter id="filter4_d_2038_617537" x="1.14366" y="110.216" width="222.377" height="58.0174" filterUnits="userSpaceOnUse" color-interpolation-filters="sRGB">
<feFlood flood-opacity="0" result="BackgroundImageFix"/>
<feColorMatrix in="SourceAlpha" type="matrix" values="0 0 0 0 0 0 0 0 0 0 0 0 0 0 0 0 0 0 127 0" result="hardAlpha"/>
<feMorphology radius="2.42534" operator="erode" in="SourceAlpha" result="effect1_dropShadow_2038_617537"/>
<feOffset dy="2.42534"/>
<feGaussianBlur stdDeviation="4.85068"/>
<feComposite in2="hardAlpha" operator="out"/>
<feColorMatrix type="matrix" values="0 0 0 0 0 0 0 0 0 0 0 0 0 0 0 0 0 0 0.08 0"/>
<feBlend mode="normal" in2="BackgroundImageFix" result="effect1_dropShadow_2038_617537"/>
<feBlend mode="normal" in="SourceGraphic" in2="effect1_dropShadow_2038_617537" result="shape"/>
</filter>
<filter id="filter5_d_2038_617537" x="220.097" y="109.897" width="181.511" height="58.8519" filterUnits="userSpaceOnUse" color-interpolation-filters="sRGB">
<feFlood flood-opacity="0" result="BackgroundImageFix"/>
<feColorMatrix in="SourceAlpha" type="matrix" values="0 0 0 0 0 0 0 0 0 0 0 0 0 0 0 0 0 0 127 0" result="hardAlpha"/>
<feMorphology radius="2.55299" operator="erode" in="SourceAlpha" result="effect1_dropShadow_2038_617537"/>
<feOffset dy="2.55299"/>
<feGaussianBlur stdDeviation="5.10598"/>
<feComposite in2="hardAlpha" operator="out"/>
<feColorMatrix type="matrix" values="0 0 0 0 0 0 0 0 0 0 0 0 0 0 0 0 0 0 0.08 0"/>
<feBlend mode="normal" in2="BackgroundImageFix" result="effect1_dropShadow_2038_617537"/>
<feBlend mode="normal" in="SourceGraphic" in2="effect1_dropShadow_2038_617537" result="shape"/>
</filter>
<clipPath id="clip0_2038_617537">
<rect x="13.0471" y="10.4148" width="34.1513" height="34.1513" rx="3.41513" fill="white"/>
</clipPath>
<clipPath id="clip1_2038_617537">
<rect x="148.005" y="10.4148" width="34.1513" height="34.1513" rx="3.41513" fill="white"/>
</clipPath>
<clipPath id="clip2_2038_617537">
<rect x="13.047" y="65.0547" width="34.1513" height="34.1513" rx="3.41513" fill="white"/>
</clipPath>
<clipPath id="clip3_2038_617537">
<rect x="198.59" y="61.6396" width="205.031" height="40.9769" rx="6.82948" fill="white"/>
</clipPath>
<clipPath id="clip4_2038_617537">
<rect x="9.63232" y="116.279" width="205.4" height="41.04" rx="6.488" fill="white"/>
</clipPath>
<clipPath id="clip5_2038_617537">
<rect x="232.447" y="119.694" width="34.1513" height="34.1513" rx="3.41513" fill="white"/>
</clipPath>
</defs>
</svg>
