<svg width="521" height="86" viewBox="0 0 521 86" fill="none" xmlns="http://www.w3.org/2000/svg">
<g filter="url(#filter0_d_2038_616913)">
<g clip-path="url(#clip0_2038_616913)">
<rect x="9.26514" y="6.84424" width="502.206" height="67.6287" rx="15.0286" fill="white" shape-rendering="crispEdges"/>
<path d="M34.9739 39.2489L34.9742 38.6949L34.974 38.6949L34.974 38.6934L34.7666 38.6936L34.6973 38.6931C33.4219 38.685 32.3905 37.6519 32.3853 36.3758L32.3852 36.3439L32.3853 36.0951L31.8282 36.0954L31.8282 36.0986L31.8278 36.0986L31.8276 36.3774C31.8269 37.6498 30.8089 38.6682 29.5473 38.6958L29.2197 38.696L29.2194 39.2541L29.4979 39.2541C30.783 39.2545 31.824 40.2954 31.8244 41.5805L31.8248 41.5805L31.8246 41.8622L32.3818 41.8619L32.3819 41.5796L32.3821 41.5796C32.3816 40.2923 33.4175 39.2607 34.697 39.251L34.7275 39.2507L34.9736 39.2506L34.9736 39.2489L34.9739 39.2489Z" fill="#27272E"/>
<path d="M43.6795 46.241L43.6795 45.472L43.6791 45.472L43.6791 45.47L43.3912 45.47L43.2951 45.4693C41.5248 45.457 40.0923 44.0221 40.084 42.2507L40.0838 42.2064L40.0838 41.8611L39.3104 41.8611L39.3104 41.8655L39.3099 41.8655L39.3099 42.2526C39.3099 44.0186 37.8977 45.4313 36.1467 45.4687L35.692 45.4687L35.692 46.2432L36.0786 46.2436C37.8624 46.2452 39.3082 47.6909 39.3099 49.4746L39.3104 49.4746L39.3104 49.8657H40.0838V49.4739L40.0839 49.4739C40.0822 47.687 41.5191 46.256 43.2951 46.2436L43.3375 46.2433L43.6791 46.2433L43.6791 46.241L43.6795 46.241Z" fill="#27272E"/>
<path fill-rule="evenodd" clip-rule="evenodd" d="M40.0443 32.9849H40.4519V32.985H40.4531V33.1665L40.4533 33.189C40.4599 34.1323 41.2183 34.8954 42.1652 34.8945V34.8946H42.3729V35.3053H42.1657V35.3056C41.2203 35.3065 40.4541 36.0744 40.4532 37.0218L40.4531 37.2271H40.0426V36.9857C40.0228 36.0556 39.2741 35.3056 38.3381 35.3056L38.133 35.3056V35.3053H38.1306V34.8946H38.3136L38.3371 34.8945C39.2759 34.8901 40.0364 34.1293 40.0429 33.189L40.0433 33.1379V32.985H40.0443V32.9849ZM38.8633 35.173V35.0245C38.8992 35.0141 38.9347 35.0027 38.9697 34.9902C39.5153 34.7966 39.9475 34.3627 40.1397 33.8154C40.1508 33.7837 40.1611 33.7517 40.1706 33.7193H40.3251C40.3345 33.7518 40.3448 33.7839 40.3558 33.8156C40.5475 34.3646 40.9796 34.8 41.5283 34.9925C41.5497 35.0001 41.5713 35.0072 41.5931 35.014C41.6087 35.0188 41.6244 35.0235 41.6402 35.028V35.1735C41.6025 35.1843 41.5652 35.1962 41.5285 35.2092C40.9821 35.4025 40.5491 35.8366 40.3566 36.3844C40.3441 36.4201 40.3325 36.4563 40.3221 36.4929H40.1748C40.1644 36.4562 40.153 36.4199 40.1405 36.3841C39.9493 35.8351 39.5182 35.3992 38.97 35.2069C38.9349 35.1946 38.8993 35.1833 38.8633 35.173Z" fill="#27272E"/>
<path d="M60.3608 37.2177V45.9692H59.0361V38.5424H58.9849L56.891 39.9098V38.6449L59.0746 37.2177H60.3608ZM66.1938 45.9692V39.4056H67.2023V45.9692H66.1938ZM66.7066 38.3116C66.51 38.3116 66.3405 38.2447 66.1981 38.1108C66.0585 37.9769 65.9887 37.8159 65.9887 37.6279C65.9887 37.4399 66.0585 37.2789 66.1981 37.145C66.3405 37.0111 66.51 36.9442 66.7066 36.9442C66.9031 36.9442 67.0712 37.0111 67.2108 37.145C67.3533 37.2789 67.4245 37.4399 67.4245 37.6279C67.4245 37.8159 67.3533 37.9769 67.2108 38.1108C67.0712 38.2447 66.9031 38.3116 66.7066 38.3116ZM71.9039 39.4056V40.2602H68.5024V39.4056H71.9039ZM69.4938 37.833H70.5023V44.089C70.5023 44.3739 70.5436 44.5876 70.6262 44.73C70.7117 44.8696 70.8199 44.9636 70.951 45.012C71.0848 45.0576 71.2259 45.0804 71.374 45.0804C71.4851 45.0804 71.5763 45.0747 71.6475 45.0633C71.7187 45.0491 71.7757 45.0377 71.8184 45.0291L72.0235 45.9351C71.9552 45.9607 71.8597 45.9863 71.7372 46.012C71.6147 46.0405 71.4595 46.0547 71.2714 46.0547C70.9866 46.0547 70.7074 45.9935 70.4339 45.871C70.1633 45.7485 69.9382 45.5619 69.7587 45.3112C69.5821 45.0605 69.4938 44.7442 69.4938 44.3625V37.833ZM76.1023 46.106C75.4699 46.106 74.9243 45.9664 74.4657 45.6872C74.0099 45.4052 73.658 45.012 73.4102 44.5078C73.1652 44.0007 73.0427 43.411 73.0427 42.7387C73.0427 42.0664 73.1652 41.4738 73.4102 40.961C73.658 40.4454 74.0027 40.0437 74.4443 39.756C74.8887 39.4654 75.4072 39.3201 75.9998 39.3201C76.3416 39.3201 76.6792 39.3771 77.0125 39.491C77.3458 39.605 77.6492 39.7902 77.9227 40.0465C78.1962 40.3001 78.4141 40.6363 78.5765 41.055C78.7389 41.4738 78.8201 41.9894 78.8201 42.6019V43.0293H73.7606V42.1575H77.7945C77.7945 41.7872 77.7205 41.4567 77.5723 41.1661C77.427 40.8756 77.2191 40.6462 76.9484 40.4781C76.6806 40.3101 76.3644 40.226 75.9998 40.226C75.5981 40.226 75.2505 40.3257 74.9571 40.5251C74.6665 40.7217 74.4429 40.9781 74.2862 41.2943C74.1295 41.6105 74.0512 41.9496 74.0512 42.3114V42.8925C74.0512 43.3882 74.1366 43.8084 74.3076 44.1531C74.4813 44.495 74.7221 44.7556 75.0297 44.9351C75.3374 45.1117 75.6949 45.2001 76.1023 45.2001C76.3673 45.2001 76.6066 45.163 76.8202 45.089C77.0367 45.012 77.2233 44.8981 77.38 44.7471C77.5367 44.5933 77.6578 44.4024 77.7432 44.1745L78.7175 44.448C78.615 44.7784 78.4426 45.069 78.2005 45.3197C77.9583 45.5676 77.6592 45.7613 77.3031 45.9009C76.947 46.0376 76.5467 46.106 76.1023 46.106ZM80.3542 45.9692V39.4056H81.3285V40.4311H81.4139C81.5507 40.0807 81.7715 39.8087 82.0763 39.615C82.3811 39.4184 82.7472 39.3201 83.1745 39.3201C83.6075 39.3201 83.9679 39.4184 84.2556 39.615C84.5462 39.8087 84.7727 40.0807 84.9351 40.4311H85.0035C85.1715 40.0921 85.4237 39.8229 85.7598 39.6235C86.096 39.4212 86.4991 39.3201 86.9691 39.3201C87.556 39.3201 88.036 39.5038 88.4092 39.8713C88.7824 40.236 88.969 40.8043 88.969 41.5764V45.9692H87.9605V41.5764C87.9605 41.0921 87.8281 40.7459 87.5631 40.538C87.2982 40.33 86.9862 40.226 86.6273 40.226C86.1658 40.226 85.8082 40.3656 85.5547 40.6448C85.3012 40.9211 85.1744 41.2715 85.1744 41.696V45.9692H84.1488V41.4738C84.1488 41.1006 84.0277 40.8001 83.7856 40.5722C83.5434 40.3414 83.2315 40.226 82.8497 40.226C82.5877 40.226 82.3427 40.2958 82.1148 40.4354C81.8897 40.575 81.7074 40.7687 81.5678 41.0166C81.431 41.2616 81.3627 41.545 81.3627 41.8669V45.9692H80.3542ZM95.4622 40.8756L94.5563 41.1319C94.4993 40.981 94.4152 40.8342 94.3041 40.6918C94.1959 40.5465 94.0477 40.4269 93.8597 40.3329C93.6717 40.2388 93.431 40.1918 93.1375 40.1918C92.7359 40.1918 92.4011 40.2844 92.1333 40.4696C91.8684 40.6519 91.7359 40.8841 91.7359 41.1661C91.7359 41.4168 91.8271 41.6148 92.0094 41.7601C92.1917 41.9054 92.4766 42.0265 92.8641 42.1233L93.8383 42.3626C94.4252 42.5051 94.8625 42.723 95.1502 43.0164C95.438 43.307 95.5818 43.6816 95.5818 44.1403C95.5818 44.5163 95.4736 44.8525 95.2571 45.1488C95.0434 45.4451 94.7443 45.6787 94.3597 45.8496C93.9751 46.0205 93.5278 46.106 93.0179 46.106C92.3484 46.106 91.7943 45.9607 91.3556 45.6701C90.9169 45.3795 90.6391 44.9551 90.5223 44.3967L91.4795 44.1574C91.5707 44.5106 91.743 44.7756 91.9966 44.9522C92.253 45.1288 92.5877 45.2172 93.0008 45.2172C93.4709 45.2172 93.844 45.1174 94.1204 44.918C94.3996 44.7158 94.5392 44.4736 94.5392 44.1916C94.5392 43.9637 94.4594 43.7728 94.2999 43.619C94.1403 43.4623 93.8953 43.3455 93.5649 43.2686L92.4709 43.0122C91.8698 42.8697 91.4282 42.6489 91.1462 42.3498C90.867 42.0478 90.7274 41.6704 90.7274 41.2174C90.7274 40.8471 90.8314 40.5195 91.0394 40.2346C91.2502 39.9497 91.5365 39.7261 91.8983 39.5637C92.263 39.4013 92.676 39.3201 93.1375 39.3201C93.7871 39.3201 94.297 39.4625 94.6674 39.7474C95.0405 40.0323 95.3055 40.4083 95.4622 40.8756ZM105.134 40.8756L104.228 41.1319C104.171 40.981 104.087 40.8342 103.976 40.6918C103.867 40.5465 103.719 40.4269 103.531 40.3329C103.343 40.2388 103.102 40.1918 102.809 40.1918C102.407 40.1918 102.072 40.2844 101.805 40.4696C101.54 40.6519 101.407 40.8841 101.407 41.1661C101.407 41.4168 101.498 41.6148 101.681 41.7601C101.863 41.9054 102.148 42.0265 102.535 42.1233L103.51 42.3626C104.097 42.5051 104.534 42.723 104.822 43.0164C105.109 43.307 105.253 43.6816 105.253 44.1403C105.253 44.5163 105.145 44.8525 104.928 45.1488C104.715 45.4451 104.416 45.6787 104.031 45.8496C103.646 46.0205 103.199 46.106 102.689 46.106C102.02 46.106 101.466 45.9607 101.027 45.6701C100.588 45.3795 100.311 44.9551 100.194 44.3967L101.151 44.1574C101.242 44.5106 101.414 44.7756 101.668 44.9522C101.924 45.1288 102.259 45.2172 102.672 45.2172C103.142 45.2172 103.515 45.1174 103.792 44.918C104.071 44.7158 104.211 44.4736 104.211 44.1916C104.211 43.9637 104.131 43.7728 103.971 43.619C103.812 43.4623 103.567 43.3455 103.236 43.2686L102.142 43.0122C101.541 42.8697 101.1 42.6489 100.818 42.3498C100.538 42.0478 100.399 41.6704 100.399 41.2174C100.399 40.8471 100.503 40.5195 100.711 40.2346C100.922 39.9497 101.208 39.7261 101.57 39.5637C101.934 39.4013 102.347 39.3201 102.809 39.3201C103.458 39.3201 103.968 39.4625 104.339 39.7474C104.712 40.0323 104.977 40.4083 105.134 40.8756ZM109.523 46.106C108.891 46.106 108.345 45.9664 107.887 45.6872C107.431 45.4052 107.079 45.012 106.831 44.5078C106.586 44.0007 106.464 43.411 106.464 42.7387C106.464 42.0664 106.586 41.4738 106.831 40.961C107.079 40.4454 107.424 40.0437 107.865 39.756C108.31 39.4654 108.828 39.3201 109.421 39.3201C109.763 39.3201 110.1 39.3771 110.433 39.491C110.767 39.605 111.07 39.7902 111.344 40.0465C111.617 40.3001 111.835 40.6363 111.997 41.055C112.16 41.4738 112.241 41.9894 112.241 42.6019V43.0293H107.181V42.1575H111.215C111.215 41.7872 111.141 41.4567 110.993 41.1661C110.848 40.8756 110.64 40.6462 110.369 40.4781C110.102 40.3101 109.785 40.226 109.421 40.226C109.019 40.226 108.671 40.3257 108.378 40.5251C108.087 40.7217 107.864 40.9781 107.707 41.2943C107.55 41.6105 107.472 41.9496 107.472 42.3114V42.8925C107.472 43.3882 107.558 43.8084 107.728 44.1531C107.902 44.495 108.143 44.7556 108.451 44.9351C108.758 45.1117 109.116 45.2001 109.523 45.2001C109.788 45.2001 110.027 45.163 110.241 45.089C110.458 45.012 110.644 44.8981 110.801 44.7471C110.958 44.5933 111.079 44.4024 111.164 44.1745L112.138 44.448C112.036 44.7784 111.864 45.069 111.621 45.3197C111.379 45.5676 111.08 45.7613 110.724 45.9009C110.368 46.0376 109.968 46.106 109.523 46.106ZM114.784 37.2177V45.9692H113.775V37.2177H114.784ZM119.383 46.106C118.75 46.106 118.205 45.9664 117.746 45.6872C117.29 45.4052 116.938 45.012 116.69 44.5078C116.445 44.0007 116.323 43.411 116.323 42.7387C116.323 42.0664 116.445 41.4738 116.69 40.961C116.938 40.4454 117.283 40.0437 117.725 39.756C118.169 39.4654 118.688 39.3201 119.28 39.3201C119.622 39.3201 119.96 39.3771 120.293 39.491C120.626 39.605 120.93 39.7902 121.203 40.0465C121.476 40.3001 121.694 40.6363 121.857 41.055C122.019 41.4738 122.1 41.9894 122.1 42.6019V43.0293H117.041V42.1575H121.075C121.075 41.7872 121.001 41.4567 120.853 41.1661C120.707 40.8756 120.499 40.6462 120.229 40.4781C119.961 40.3101 119.645 40.226 119.28 40.226C118.878 40.226 118.531 40.3257 118.237 40.5251C117.947 40.7217 117.723 40.9781 117.566 41.2943C117.41 41.6105 117.331 41.9496 117.331 42.3114V42.8925C117.331 43.3882 117.417 43.8084 117.588 44.1531C117.762 44.495 118.002 44.7556 118.31 44.9351C118.618 45.1117 118.975 45.2001 119.383 45.2001C119.648 45.2001 119.887 45.163 120.101 45.089C120.317 45.012 120.504 44.8981 120.66 44.7471C120.817 44.5933 120.938 44.4024 121.024 44.1745L121.998 44.448C121.895 44.7784 121.723 45.069 121.481 45.3197C121.239 45.5676 120.939 45.7613 120.583 45.9009C120.227 46.0376 119.827 46.106 119.383 46.106ZM126.301 46.106C125.686 46.106 125.156 45.9607 124.711 45.6701C124.267 45.3795 123.925 44.9793 123.686 44.4693C123.446 43.9594 123.327 43.3768 123.327 42.7216C123.327 42.055 123.449 41.4667 123.694 40.9567C123.942 40.444 124.287 40.0437 124.728 39.756C125.173 39.4654 125.691 39.3201 126.284 39.3201C126.745 39.3201 127.161 39.4056 127.532 39.5765C127.902 39.7474 128.205 39.9867 128.442 40.2944C128.678 40.6021 128.825 40.961 128.882 41.3712H127.874C127.797 41.0721 127.626 40.8072 127.361 40.5764C127.099 40.3428 126.745 40.226 126.301 40.226C125.908 40.226 125.563 40.3286 125.267 40.5337C124.973 40.736 124.744 41.0223 124.579 41.3926C124.416 41.7601 124.335 42.1917 124.335 42.6874C124.335 43.1945 124.415 43.6361 124.575 44.0121C124.737 44.3881 124.965 44.6801 125.258 44.8881C125.555 45.0961 125.902 45.2001 126.301 45.2001C126.563 45.2001 126.801 45.1545 127.015 45.0633C127.228 44.9722 127.409 44.8411 127.557 44.6702C127.705 44.4992 127.811 44.2941 127.874 44.0548H128.882C128.825 44.4423 128.684 44.7913 128.459 45.1018C128.237 45.4094 127.942 45.6544 127.574 45.8368C127.21 46.0162 126.785 46.106 126.301 46.106ZM133.211 39.4056V40.2602H129.809V39.4056H133.211ZM130.801 37.833H131.809V44.089C131.809 44.3739 131.85 44.5876 131.933 44.73C132.019 44.8696 132.127 44.9636 132.258 45.012C132.392 45.0576 132.533 45.0804 132.681 45.0804C132.792 45.0804 132.883 45.0747 132.954 45.0633C133.026 45.0491 133.083 45.0377 133.125 45.0291L133.33 45.9351C133.262 45.9607 133.167 45.9863 133.044 46.012C132.922 46.0405 132.766 46.0547 132.578 46.0547C132.293 46.0547 132.014 45.9935 131.741 45.871C131.47 45.7485 131.245 45.5619 131.066 45.3112C130.889 45.0605 130.801 44.7442 130.801 44.3625V37.833ZM137.409 46.106C136.777 46.106 136.231 45.9664 135.773 45.6872C135.317 45.4052 134.965 45.012 134.717 44.5078C134.472 44.0007 134.35 43.411 134.35 42.7387C134.35 42.0664 134.472 41.4738 134.717 40.961C134.965 40.4454 135.31 40.0437 135.751 39.756C136.196 39.4654 136.714 39.3201 137.307 39.3201C137.649 39.3201 137.986 39.3771 138.319 39.491C138.653 39.605 138.956 39.7902 139.23 40.0465C139.503 40.3001 139.721 40.6363 139.883 41.055C140.046 41.4738 140.127 41.9894 140.127 42.6019V43.0293H135.067V42.1575H139.101C139.101 41.7872 139.027 41.4567 138.879 41.1661C138.734 40.8756 138.526 40.6462 138.255 40.4781C137.988 40.3101 137.671 40.226 137.307 40.226C136.905 40.226 136.557 40.3257 136.264 40.5251C135.973 40.7217 135.75 40.9781 135.593 41.2943C135.436 41.6105 135.358 41.9496 135.358 42.3114V42.8925C135.358 43.3882 135.444 43.8084 135.614 44.1531C135.788 44.495 136.029 44.7556 136.337 44.9351C136.644 45.1117 137.002 45.2001 137.409 45.2001C137.674 45.2001 137.913 45.163 138.127 45.089C138.344 45.012 138.53 44.8981 138.687 44.7471C138.844 44.5933 138.965 44.4024 139.05 44.1745L140.024 44.448C139.922 44.7784 139.75 45.069 139.507 45.3197C139.265 45.5676 138.966 45.7613 138.61 45.9009C138.254 46.0376 137.854 46.106 137.409 46.106ZM144.14 46.106C143.593 46.106 143.11 45.9678 142.691 45.6915C142.272 45.4123 141.945 45.0192 141.708 44.5121C141.472 44.0021 141.353 43.3996 141.353 42.7045C141.353 42.0151 141.472 41.4168 141.708 40.9097C141.945 40.4026 142.274 40.0109 142.695 39.7346C143.117 39.4583 143.604 39.3201 144.157 39.3201C144.584 39.3201 144.922 39.3913 145.169 39.5338C145.42 39.6734 145.611 39.8329 145.742 40.0124C145.876 40.189 145.98 40.3343 146.054 40.4482H146.139V37.2177H147.148V45.9692H146.174V44.9608H146.054C145.98 45.0804 145.874 45.2314 145.738 45.4137C145.601 45.5932 145.406 45.7542 145.152 45.8966C144.899 46.0362 144.561 46.106 144.14 46.106ZM144.276 45.2001C144.681 45.2001 145.023 45.0947 145.302 44.8838C145.581 44.6702 145.793 44.3753 145.939 43.9993C146.084 43.6204 146.157 43.1831 146.157 42.6874C146.157 42.1974 146.085 41.7687 145.943 41.4012C145.8 41.0308 145.59 40.7431 145.31 40.538C145.031 40.33 144.687 40.226 144.276 40.226C143.849 40.226 143.493 40.3357 143.208 40.5551C142.926 40.7716 142.714 41.0664 142.571 41.4396C142.432 41.81 142.362 42.2259 142.362 42.6874C142.362 43.1546 142.433 43.5791 142.576 43.9608C142.721 44.3397 142.935 44.6417 143.217 44.8667C143.501 45.089 143.855 45.2001 144.276 45.2001Z" fill="#27292E"/>
<rect x="166.224" y="26.9495" width="26.3589" height="26.3589" rx="6.87623" fill="#F4EFFF"/>
<path opacity="0.32" d="M179.475 31.8511C179.371 31.7617 179.319 31.7169 179.271 31.68C178.393 30.9999 177.166 30.9999 176.288 31.68C176.24 31.7169 176.188 31.7617 176.084 31.8511V31.8511C176.005 31.9186 175.966 31.9523 175.928 31.9821C175.245 32.5223 174.326 32.6568 173.517 32.3347C173.472 32.317 173.425 32.2959 173.33 32.2538L172.046 31.6833C171.59 31.4804 171.362 31.379 171.177 31.4122C171.016 31.4413 170.874 31.5339 170.782 31.6692C170.677 31.8241 170.677 32.0739 170.677 32.5735V39.1144C170.677 42.5242 170.677 44.2291 171.34 45.5315C171.924 46.677 172.855 47.6084 174.001 48.1921C175.303 48.8557 177.008 48.8557 180.418 48.8557H184.883V32.5735C184.883 32.0739 184.883 31.8241 184.777 31.6692C184.685 31.5339 184.543 31.4413 184.382 31.4122C184.198 31.379 183.969 31.4804 183.513 31.6833L182.229 32.2538C182.134 32.2959 182.087 32.317 182.042 32.3347C181.233 32.6568 180.314 32.5223 179.631 31.9821C179.593 31.9523 179.554 31.9186 179.475 31.8511V31.8511Z" fill="#783FD9"/>
<path fill-rule="evenodd" clip-rule="evenodd" d="M178.693 37.2878C178.693 36.7834 178.284 36.3745 177.779 36.3745C177.275 36.3745 176.866 36.7834 176.866 37.2878V37.6529C175.934 37.8806 175.243 38.7211 175.243 39.7231C175.243 40.9 176.197 41.854 177.374 41.854H178.185C178.353 41.854 178.49 41.9903 178.49 42.1584C178.49 42.3265 178.353 42.4628 178.185 42.4628H177.78L177.779 42.4628L177.779 42.4628H176.156C175.652 42.4628 175.243 42.8717 175.243 43.3761C175.243 43.8805 175.652 44.2893 176.156 44.2893H176.866V44.5938C176.866 45.0981 177.275 45.507 177.779 45.507C178.284 45.507 178.693 45.0981 178.693 44.5938V44.2286C179.625 44.001 180.316 43.1605 180.316 42.1584C180.316 40.9816 179.362 40.0275 178.185 40.0275H177.374C177.205 40.0275 177.069 39.8912 177.069 39.7231C177.069 39.555 177.205 39.4187 177.374 39.4187H179.403C179.907 39.4187 180.316 39.0098 180.316 38.5054C180.316 38.0011 179.907 37.5922 179.403 37.5922H178.693V37.2878ZM184.883 48.8555V39.52C185.638 39.52 186.015 39.52 186.325 39.603C187.165 39.8282 187.822 40.4847 188.047 41.3251C188.13 41.6348 188.13 42.0122 188.13 42.7672V45.6084C188.13 47.4017 186.676 48.8555 184.883 48.8555Z" fill="#783FD9"/>
<path d="M207.816 38.7233H206.483C206.432 38.4384 206.336 38.1877 206.197 37.9712C206.057 37.7547 205.886 37.571 205.684 37.42C205.482 37.269 205.255 37.155 205.005 37.0781C204.757 37.0012 204.493 36.9627 204.214 36.9627C203.71 36.9627 203.258 37.0895 202.859 37.3431C202.463 37.5966 202.15 37.9684 201.919 38.4584C201.691 38.9484 201.578 39.5466 201.578 40.2531C201.578 40.9653 201.691 41.5664 201.919 42.0564C202.15 42.5464 202.465 42.9168 202.864 43.1675C203.263 43.4182 203.711 43.5435 204.21 43.5435C204.486 43.5435 204.748 43.5065 204.996 43.4324C205.247 43.3555 205.473 43.243 205.676 43.0948C205.878 42.9467 206.049 42.7658 206.188 42.5521C206.331 42.3356 206.429 42.0878 206.483 41.8086L207.816 41.8129C207.745 42.243 207.607 42.639 207.402 43.0008C207.2 43.3598 206.939 43.6703 206.62 43.9324C206.304 44.1916 205.942 44.3925 205.535 44.5349C205.127 44.6773 204.683 44.7486 204.201 44.7486C203.443 44.7486 202.768 44.5691 202.176 44.2101C201.583 43.8483 201.116 43.3313 200.774 42.6589C200.435 41.9866 200.266 41.1847 200.266 40.2531C200.266 39.3187 200.437 38.5168 200.778 37.8473C201.12 37.175 201.587 36.6593 202.18 36.3004C202.773 35.9386 203.446 35.7577 204.201 35.7577C204.666 35.7577 205.099 35.8246 205.5 35.9585C205.905 36.0896 206.268 36.2833 206.59 36.5397C206.912 36.7932 207.178 37.1038 207.389 37.4713C207.6 37.8359 207.742 38.2533 207.816 38.7233ZM209.294 44.6289V38.0652H210.529V39.1079H210.597C210.717 38.7546 210.928 38.4769 211.23 38.2746C211.534 38.0695 211.879 37.9669 212.264 37.9669C212.344 37.9669 212.438 37.9698 212.546 37.9755C212.657 37.9812 212.744 37.9883 212.806 37.9969V39.219C212.755 39.2048 212.664 39.1891 212.533 39.172C212.402 39.1521 212.271 39.1421 212.14 39.1421C211.838 39.1421 211.569 39.2062 211.332 39.3344C211.099 39.4597 210.913 39.6349 210.777 39.86C210.64 40.0822 210.572 40.3357 210.572 40.6206V44.6289H209.294ZM216.506 44.7614C215.859 44.7614 215.302 44.6232 214.835 44.3469C214.371 44.0677 214.012 43.676 213.758 43.1717C213.508 42.6646 213.382 42.0707 213.382 41.3898C213.382 40.7175 213.508 40.1249 213.758 39.6121C214.012 39.0994 214.365 38.6991 214.818 38.4114C215.274 38.1236 215.807 37.9798 216.416 37.9798C216.787 37.9798 217.146 38.041 217.493 38.1635C217.841 38.286 218.153 38.4783 218.429 38.7404C218.705 39.0025 218.923 39.3429 219.083 39.7617C219.242 40.1776 219.322 40.6833 219.322 41.2787V41.7317H214.104V40.7745H218.07C218.07 40.4383 218.002 40.1406 217.865 39.8814C217.728 39.6193 217.536 39.4127 217.288 39.2617C217.043 39.1107 216.755 39.0353 216.425 39.0353C216.066 39.0353 215.753 39.1236 215.485 39.3002C215.22 39.474 215.015 39.7019 214.869 39.9839C214.727 40.2631 214.656 40.5665 214.656 40.8941V41.6419C214.656 42.0806 214.733 42.4538 214.886 42.7615C215.043 43.0692 215.261 43.3042 215.54 43.4666C215.819 43.6261 216.146 43.7059 216.519 43.7059C216.761 43.7059 216.982 43.6717 217.181 43.6033C217.381 43.5321 217.553 43.4267 217.698 43.2871C217.844 43.1475 217.955 42.9752 218.032 42.7701L219.241 42.988C219.144 43.3441 218.97 43.656 218.72 43.9238C218.472 44.1888 218.16 44.3953 217.784 44.5434C217.411 44.6887 216.985 44.7614 216.506 44.7614ZM222.65 44.7742C222.234 44.7742 221.858 44.6973 221.522 44.5434C221.186 44.3868 220.919 44.1603 220.723 43.864C220.529 43.5677 220.432 43.2045 220.432 42.7743C220.432 42.404 220.503 42.0992 220.646 41.8599C220.788 41.6206 220.98 41.4311 221.223 41.2915C221.465 41.1519 221.735 41.0465 222.035 40.9753C222.334 40.9041 222.638 40.85 222.949 40.8129C223.342 40.7673 223.661 40.7303 223.906 40.7018C224.151 40.6705 224.329 40.6206 224.44 40.5522C224.551 40.4839 224.607 40.3728 224.607 40.2189V40.189C224.607 39.8158 224.502 39.5267 224.291 39.3216C224.083 39.1164 223.772 39.0139 223.359 39.0139C222.929 39.0139 222.59 39.1093 222.342 39.3002C222.097 39.4882 221.928 39.6976 221.834 39.9284L220.633 39.6549C220.775 39.256 220.983 38.9341 221.257 38.6891C221.533 38.4413 221.851 38.2618 222.21 38.1507C222.569 38.0367 222.946 37.9798 223.342 37.9798C223.604 37.9798 223.882 38.0111 224.175 38.0738C224.472 38.1336 224.748 38.2447 225.004 38.4071C225.264 38.5695 225.476 38.8017 225.641 39.1036C225.806 39.4028 225.889 39.7916 225.889 40.2702V44.6289H224.641V43.7315H224.59C224.507 43.8968 224.383 44.0591 224.218 44.2187C224.053 44.3782 223.841 44.5107 223.581 44.6161C223.322 44.7215 223.012 44.7742 222.65 44.7742ZM222.928 43.7486C223.281 43.7486 223.583 43.6788 223.834 43.5392C224.087 43.3996 224.279 43.2173 224.41 42.9923C224.544 42.7644 224.611 42.5208 224.611 42.2615V41.4154C224.566 41.461 224.477 41.5038 224.346 41.5436C224.218 41.5807 224.071 41.6134 223.906 41.6419C223.741 41.6676 223.58 41.6918 223.423 41.7146C223.267 41.7345 223.136 41.7516 223.03 41.7658C222.782 41.7972 222.556 41.8499 222.351 41.924C222.148 41.998 221.986 42.1049 221.864 42.2444C221.744 42.3812 221.684 42.5635 221.684 42.7914C221.684 43.1076 221.801 43.3469 222.035 43.5093C222.268 43.6689 222.566 43.7486 222.928 43.7486ZM230.655 38.0652V39.0908H227.069V38.0652H230.655ZM228.031 36.4927H229.309V42.7017C229.309 42.9495 229.346 43.1361 229.42 43.2615C229.494 43.384 229.589 43.468 229.706 43.5136C229.826 43.5563 229.955 43.5777 230.095 43.5777C230.197 43.5777 230.287 43.5706 230.364 43.5563C230.441 43.5421 230.501 43.5307 230.544 43.5221L230.774 44.5776C230.7 44.6061 230.595 44.6346 230.458 44.6631C230.321 44.6944 230.15 44.7115 229.945 44.7144C229.609 44.7201 229.296 44.6602 229.005 44.5349C228.715 44.4095 228.48 44.2158 228.3 43.9537C228.121 43.6916 228.031 43.3626 228.031 42.9666V36.4927ZM234.826 44.7614C234.18 44.7614 233.623 44.6232 233.156 44.3469C232.691 44.0677 232.332 43.676 232.079 43.1717C231.828 42.6646 231.703 42.0707 231.703 41.3898C231.703 40.7175 231.828 40.1249 232.079 39.6121C232.332 39.0994 232.686 38.6991 233.138 38.4114C233.594 38.1236 234.127 37.9798 234.737 37.9798C235.107 37.9798 235.466 38.041 235.814 38.1635C236.161 38.286 236.473 38.4783 236.749 38.7404C237.026 39.0025 237.244 39.3429 237.403 39.7617C237.563 40.1776 237.642 40.6833 237.642 41.2787V41.7317H232.425V40.7745H236.39C236.39 40.4383 236.322 40.1406 236.185 39.8814C236.049 39.6193 235.856 39.4127 235.608 39.2617C235.363 39.1107 235.076 39.0353 234.745 39.0353C234.386 39.0353 234.073 39.1236 233.805 39.3002C233.54 39.474 233.335 39.7019 233.19 39.9839C233.047 40.2631 232.976 40.5665 232.976 40.8941V41.6419C232.976 42.0806 233.053 42.4538 233.207 42.7615C233.364 43.0692 233.581 43.3042 233.861 43.4666C234.14 43.6261 234.466 43.7059 234.839 43.7059C235.081 43.7059 235.302 43.6717 235.502 43.6033C235.701 43.5321 235.873 43.4267 236.019 43.2871C236.164 43.1475 236.275 42.9752 236.352 42.7701L237.561 42.988C237.464 43.3441 237.291 43.656 237.04 43.9238C236.792 44.1888 236.48 44.3953 236.104 44.5434C235.731 44.6887 235.305 44.7614 234.826 44.7614ZM242.347 44.6289V35.8773H245.467C246.148 35.8773 246.712 36.0013 247.159 36.2491C247.606 36.497 247.941 36.836 248.163 37.2661C248.385 37.6935 248.496 38.1749 248.496 38.7105C248.496 39.2489 248.384 39.7332 248.159 40.1634C247.937 40.5907 247.601 40.9297 247.15 41.1804C246.703 41.4283 246.14 41.5522 245.462 41.5522H243.317V40.4326H245.343C245.773 40.4326 246.122 40.3585 246.39 40.2104C246.658 40.0594 246.854 39.8543 246.979 39.595C247.105 39.3358 247.167 39.041 247.167 38.7105C247.167 38.38 247.105 38.0866 246.979 37.8302C246.854 37.5738 246.656 37.373 246.385 37.2277C246.118 37.0824 245.764 37.0097 245.326 37.0097H243.668V44.6289H242.347ZM257.647 40.2531C257.647 41.1875 257.476 41.9909 257.134 42.6632C256.792 43.3327 256.323 43.8483 255.728 44.2101C255.135 44.5691 254.462 44.7486 253.707 44.7486C252.949 44.7486 252.272 44.5691 251.677 44.2101C251.084 43.8483 250.617 43.3313 250.275 42.6589C249.933 41.9866 249.762 41.1847 249.762 40.2531C249.762 39.3187 249.933 38.5168 250.275 37.8473C250.617 37.175 251.084 36.6593 251.677 36.3004C252.272 35.9386 252.949 35.7577 253.707 35.7577C254.462 35.7577 255.135 35.9386 255.728 36.3004C256.323 36.6593 256.792 37.175 257.134 37.8473C257.476 38.5168 257.647 39.3187 257.647 40.2531ZM256.339 40.2531C256.339 39.5409 256.224 38.9412 255.993 38.4541C255.765 37.9641 255.451 37.5938 255.053 37.3431C254.657 37.0895 254.208 36.9627 253.707 36.9627C253.202 36.9627 252.752 37.0895 252.356 37.3431C251.96 37.5938 251.647 37.9641 251.416 38.4541C251.188 38.9412 251.074 39.5409 251.074 40.2531C251.074 40.9653 251.188 41.5664 251.416 42.0564C251.647 42.5436 251.96 42.9139 252.356 43.1675C252.752 43.4182 253.202 43.5435 253.707 43.5435C254.208 43.5435 254.657 43.4182 255.053 43.1675C255.451 42.9139 255.765 42.5436 255.993 42.0564C256.224 41.5664 256.339 40.9653 256.339 40.2531Z" fill="#27292E"/>
<rect x="278.95" y="26.9495" width="26.3589" height="26.3589" rx="6.87623" fill="#F4EFFF"/>
<path opacity="0.32" fill-rule="evenodd" clip-rule="evenodd" d="M283.195 40.5324C283.42 40.0813 283.969 39.8984 284.42 40.124L287.31 41.569C289.274 42.5511 290.1 42.955 290.95 43.1144C291.729 43.2606 292.529 43.2606 293.308 43.1144C294.158 42.955 294.984 42.5511 296.948 41.569L299.838 40.124C300.29 39.8984 300.838 40.0813 301.064 40.5324C301.289 40.9835 301.106 41.5321 300.655 41.7576L297.765 43.2026C297.72 43.2255 297.674 43.2481 297.629 43.2705C295.842 44.1643 294.777 44.6972 293.645 44.9096C292.643 45.0976 291.615 45.0976 290.614 44.9096C289.481 44.6972 288.416 44.1643 286.629 43.2705C286.584 43.2481 286.539 43.2255 286.493 43.2026L283.603 41.7576C283.152 41.5321 282.969 40.9835 283.195 40.5324ZM283.195 44.5913C283.42 44.1401 283.969 43.9573 284.42 44.1828L287.31 45.6279C289.274 46.6099 290.1 47.0138 290.95 47.1733C291.729 47.3195 292.529 47.3195 293.308 47.1733C294.158 47.0138 294.984 46.6099 296.948 45.6279L299.838 44.1828C300.29 43.9573 300.838 44.1401 301.064 44.5913C301.289 45.0424 301.106 45.591 300.655 45.8165L297.765 47.2615C297.72 47.2844 297.674 47.307 297.629 47.3294C295.842 48.2232 294.777 48.7561 293.645 48.9685C292.643 49.1564 291.615 49.1564 290.614 48.9685C289.481 48.7561 288.416 48.2232 286.629 47.3294C286.584 47.307 286.539 47.2844 286.493 47.2615L283.603 45.8165C283.152 45.591 282.969 45.0424 283.195 44.5913Z" fill="#783FD9"/>
<path d="M288.612 32.5523C289.911 31.9025 290.561 31.5776 291.231 31.4519C291.825 31.3405 292.434 31.3405 293.027 31.4519C293.698 31.5776 294.347 31.9025 295.647 32.5523V32.5523C297.934 33.6957 299.077 34.2674 299.437 35.0264C299.75 35.6869 299.75 36.4531 299.437 37.1136C299.077 37.8726 297.934 38.4443 295.647 39.5877V39.5877C294.347 40.2375 293.698 40.5624 293.027 40.6881C292.434 40.7995 291.825 40.7995 291.231 40.6881C290.561 40.5624 289.911 40.2375 288.612 39.5877V39.5877C286.325 38.4443 285.181 37.8726 284.821 37.1136C284.508 36.4531 284.508 35.6869 284.821 35.0264C285.181 34.2674 286.325 33.6957 288.612 32.5523V32.5523Z" fill="#783FD9"/>
<path d="M320.608 38.7233H319.275C319.224 38.4384 319.128 38.1877 318.989 37.9712C318.849 37.7547 318.678 37.571 318.476 37.42C318.274 37.269 318.047 37.155 317.797 37.0781C317.549 37.0012 317.285 36.9627 317.006 36.9627C316.502 36.9627 316.05 37.0895 315.651 37.3431C315.255 37.5966 314.942 37.9684 314.711 38.4584C314.483 38.9484 314.37 39.5466 314.37 40.2531C314.37 40.9653 314.483 41.5664 314.711 42.0564C314.942 42.5464 315.257 42.9168 315.656 43.1675C316.055 43.4182 316.503 43.5435 317.002 43.5435C317.278 43.5435 317.54 43.5065 317.788 43.4324C318.039 43.3555 318.265 43.243 318.468 43.0948C318.67 42.9467 318.841 42.7658 318.98 42.5521C319.123 42.3356 319.221 42.0878 319.275 41.8086L320.608 41.8129C320.537 42.243 320.399 42.639 320.194 43.0008C319.992 43.3598 319.731 43.6703 319.412 43.9324C319.096 44.1916 318.734 44.3925 318.327 44.5349C317.919 44.6773 317.475 44.7486 316.993 44.7486C316.235 44.7486 315.56 44.5691 314.968 44.2101C314.375 43.8483 313.908 43.3313 313.566 42.6589C313.227 41.9866 313.058 41.1847 313.058 40.2531C313.058 39.3187 313.229 38.5168 313.57 37.8473C313.912 37.175 314.379 36.6593 314.972 36.3004C315.565 35.9386 316.238 35.7577 316.993 35.7577C317.458 35.7577 317.891 35.8246 318.292 35.9585C318.697 36.0896 319.06 36.2833 319.382 36.5397C319.704 36.7932 319.97 37.1038 320.181 37.4713C320.392 37.8359 320.534 38.2533 320.608 38.7233ZM322.086 44.6289V38.0652H323.321V39.1079H323.389C323.509 38.7546 323.72 38.4769 324.022 38.2746C324.326 38.0695 324.671 37.9669 325.056 37.9669C325.136 37.9669 325.23 37.9698 325.338 37.9755C325.449 37.9812 325.536 37.9883 325.598 37.9969V39.219C325.547 39.2048 325.456 39.1891 325.325 39.172C325.194 39.1521 325.063 39.1421 324.932 39.1421C324.63 39.1421 324.361 39.2062 324.124 39.3344C323.891 39.4597 323.705 39.6349 323.569 39.86C323.432 40.0822 323.364 40.3357 323.364 40.6206V44.6289H322.086ZM329.298 44.7614C328.651 44.7614 328.094 44.6232 327.627 44.3469C327.163 44.0677 326.804 43.676 326.55 43.1717C326.3 42.6646 326.174 42.0707 326.174 41.3898C326.174 40.7175 326.3 40.1249 326.55 39.6121C326.804 39.0994 327.157 38.6991 327.61 38.4114C328.066 38.1236 328.599 37.9798 329.208 37.9798C329.579 37.9798 329.938 38.041 330.285 38.1635C330.633 38.286 330.945 38.4783 331.221 38.7404C331.497 39.0025 331.715 39.3429 331.875 39.7617C332.034 40.1776 332.114 40.6833 332.114 41.2787V41.7317H326.896V40.7745H330.862C330.862 40.4383 330.794 40.1406 330.657 39.8814C330.52 39.6193 330.328 39.4127 330.08 39.2617C329.835 39.1107 329.547 39.0353 329.217 39.0353C328.858 39.0353 328.545 39.1236 328.277 39.3002C328.012 39.474 327.807 39.7019 327.661 39.9839C327.519 40.2631 327.448 40.5665 327.448 40.8941V41.6419C327.448 42.0806 327.525 42.4538 327.678 42.7615C327.835 43.0692 328.053 43.3042 328.332 43.4666C328.611 43.6261 328.938 43.7059 329.311 43.7059C329.553 43.7059 329.774 43.6717 329.973 43.6033C330.173 43.5321 330.345 43.4267 330.49 43.2871C330.636 43.1475 330.747 42.9752 330.824 42.7701L332.033 42.988C331.936 43.3441 331.762 43.656 331.512 43.9238C331.264 44.1888 330.952 44.3953 330.576 44.5434C330.203 44.6887 329.777 44.7614 329.298 44.7614ZM335.442 44.7742C335.026 44.7742 334.65 44.6973 334.314 44.5434C333.978 44.3868 333.711 44.1603 333.515 43.864C333.321 43.5677 333.224 43.2045 333.224 42.7743C333.224 42.404 333.295 42.0992 333.438 41.8599C333.58 41.6206 333.772 41.4311 334.015 41.2915C334.257 41.1519 334.527 41.0465 334.827 40.9753C335.126 40.9041 335.43 40.85 335.741 40.8129C336.134 40.7673 336.453 40.7303 336.698 40.7018C336.943 40.6705 337.121 40.6206 337.232 40.5522C337.343 40.4839 337.399 40.3728 337.399 40.2189V40.189C337.399 39.8158 337.294 39.5267 337.083 39.3216C336.875 39.1164 336.564 39.0139 336.151 39.0139C335.721 39.0139 335.382 39.1093 335.134 39.3002C334.889 39.4882 334.72 39.6976 334.626 39.9284L333.425 39.6549C333.567 39.256 333.775 38.9341 334.049 38.6891C334.325 38.4413 334.643 38.2618 335.002 38.1507C335.361 38.0367 335.738 37.9798 336.134 37.9798C336.396 37.9798 336.674 38.0111 336.967 38.0738C337.264 38.1336 337.54 38.2447 337.796 38.4071C338.056 38.5695 338.268 38.8017 338.433 39.1036C338.598 39.4028 338.681 39.7916 338.681 40.2702V44.6289H337.433V43.7315H337.382C337.299 43.8968 337.175 44.0591 337.01 44.2187C336.845 44.3782 336.633 44.5107 336.373 44.6161C336.114 44.7215 335.804 44.7742 335.442 44.7742ZM335.72 43.7486C336.073 43.7486 336.375 43.6788 336.626 43.5392C336.879 43.3996 337.071 43.2173 337.202 42.9923C337.336 42.7644 337.403 42.5208 337.403 42.2615V41.4154C337.358 41.461 337.269 41.5038 337.138 41.5436C337.01 41.5807 336.863 41.6134 336.698 41.6419C336.533 41.6676 336.372 41.6918 336.215 41.7146C336.059 41.7345 335.928 41.7516 335.822 41.7658C335.574 41.7972 335.348 41.8499 335.143 41.924C334.94 41.998 334.778 42.1049 334.656 42.2444C334.536 42.3812 334.476 42.5635 334.476 42.7914C334.476 43.1076 334.593 43.3469 334.827 43.5093C335.06 43.6689 335.358 43.7486 335.72 43.7486ZM343.447 38.0652V39.0908H339.861V38.0652H343.447ZM340.823 36.4927H342.101V42.7017C342.101 42.9495 342.138 43.1361 342.212 43.2615C342.286 43.384 342.381 43.468 342.498 43.5136C342.618 43.5563 342.747 43.5777 342.887 43.5777C342.989 43.5777 343.079 43.5706 343.156 43.5563C343.233 43.5421 343.293 43.5307 343.336 43.5221L343.566 44.5776C343.492 44.6061 343.387 44.6346 343.25 44.6631C343.113 44.6944 342.942 44.7115 342.737 44.7144C342.401 44.7201 342.088 44.6602 341.797 44.5349C341.507 44.4095 341.272 44.2158 341.092 43.9537C340.913 43.6916 340.823 43.3626 340.823 42.9666V36.4927ZM347.618 44.7614C346.972 44.7614 346.415 44.6232 345.948 44.3469C345.483 44.0677 345.124 43.676 344.871 43.1717C344.62 42.6646 344.495 42.0707 344.495 41.3898C344.495 40.7175 344.62 40.1249 344.871 39.6121C345.124 39.0994 345.478 38.6991 345.93 38.4114C346.386 38.1236 346.919 37.9798 347.529 37.9798C347.899 37.9798 348.258 38.041 348.606 38.1635C348.953 38.286 349.265 38.4783 349.541 38.7404C349.818 39.0025 350.036 39.3429 350.195 39.7617C350.355 40.1776 350.434 40.6833 350.434 41.2787V41.7317H345.217V40.7745H349.182C349.182 40.4383 349.114 40.1406 348.977 39.8814C348.841 39.6193 348.648 39.4127 348.4 39.2617C348.155 39.1107 347.868 39.0353 347.537 39.0353C347.178 39.0353 346.865 39.1236 346.597 39.3002C346.332 39.474 346.127 39.7019 345.982 39.9839C345.839 40.2631 345.768 40.5665 345.768 40.8941V41.6419C345.768 42.0806 345.845 42.4538 345.999 42.7615C346.156 43.0692 346.373 43.3042 346.653 43.4666C346.932 43.6261 347.258 43.7059 347.631 43.7059C347.873 43.7059 348.094 43.6717 348.294 43.6033C348.493 43.5321 348.665 43.4267 348.811 43.2871C348.956 43.1475 349.067 42.9752 349.144 42.7701L350.353 42.988C350.256 43.3441 350.083 43.656 349.832 43.9238C349.584 44.1888 349.272 44.3953 348.896 44.5434C348.523 44.6887 348.097 44.7614 347.618 44.7614ZM355.139 44.6289V35.8773H358.344C358.965 35.8773 359.479 35.9799 359.887 36.185C360.294 36.3873 360.599 36.6622 360.801 37.0097C361.004 37.3545 361.105 37.7433 361.105 38.1763C361.105 38.541 361.038 38.8487 360.904 39.0994C360.77 39.3472 360.59 39.5466 360.365 39.6976C360.143 39.8457 359.898 39.954 359.63 40.0224V40.1078C359.921 40.1221 360.204 40.2161 360.481 40.3899C360.76 40.5608 360.991 40.8044 361.173 41.1206C361.355 41.4368 361.447 41.8214 361.447 42.2744C361.447 42.7216 361.341 43.1233 361.13 43.4794C360.922 43.8327 360.6 44.1133 360.165 44.3212C359.729 44.5263 359.172 44.6289 358.494 44.6289H355.139ZM356.46 43.4965H358.366C358.998 43.4965 359.451 43.374 359.724 43.129C359.998 42.884 360.135 42.5778 360.135 42.2103C360.135 41.9339 360.065 41.6804 359.925 41.4496C359.786 41.2189 359.586 41.0351 359.327 40.8984C359.071 40.7616 358.766 40.6933 358.413 40.6933H356.46V43.4965ZM356.46 39.6634H358.229C358.525 39.6634 358.791 39.6064 359.028 39.4925C359.267 39.3785 359.457 39.219 359.596 39.0139C359.739 38.8059 359.81 38.5609 359.81 38.2789C359.81 37.9171 359.683 37.6137 359.43 37.3687C359.176 37.1237 358.787 37.0012 358.263 37.0012H356.46V39.6634ZM367.068 41.9069V38.0652H368.35V44.6289H367.094V43.4922H367.025C366.874 43.8426 366.632 44.1346 366.299 44.3682C365.968 44.599 365.557 44.7144 365.064 44.7144C364.642 44.7144 364.269 44.6218 363.944 44.4366C363.622 44.2486 363.369 43.9708 363.184 43.6033C363.001 43.2358 362.91 42.7814 362.91 42.2402V38.0652H364.188V42.0863C364.188 42.5336 364.312 42.8897 364.56 43.1546C364.807 43.4196 365.129 43.5521 365.525 43.5521C365.765 43.5521 366.003 43.4922 366.239 43.3726C366.478 43.2529 366.676 43.072 366.833 42.8299C366.992 42.5877 367.071 42.2801 367.068 41.9069ZM371.344 40.7317V44.6289H370.067V38.0652H371.293V39.1335H371.374C371.525 38.786 371.762 38.5068 372.084 38.296C372.408 38.0852 372.817 37.9798 373.31 37.9798C373.757 37.9798 374.149 38.0738 374.485 38.2618C374.821 38.447 375.082 38.7233 375.267 39.0908C375.452 39.4583 375.545 39.9127 375.545 40.454V44.6289H374.267V40.6078C374.267 40.132 374.143 39.7603 373.896 39.4925C373.648 39.2219 373.307 39.0865 372.874 39.0865C372.578 39.0865 372.314 39.1506 372.084 39.2788C371.856 39.407 371.675 39.595 371.541 39.8429C371.41 40.0879 371.344 40.3842 371.344 40.7317ZM379.716 44.7571C379.186 44.7571 378.713 44.6218 378.297 44.3511C377.884 44.0777 377.559 43.6888 377.323 43.1846C377.089 42.6775 376.972 42.0692 376.972 41.3599C376.972 40.6505 377.09 40.0437 377.327 39.5395C377.566 39.0353 377.894 38.6492 378.31 38.3815C378.726 38.1137 379.197 37.9798 379.724 37.9798C380.132 37.9798 380.459 38.0481 380.707 38.1849C380.958 38.3188 381.151 38.4755 381.288 38.6549C381.428 38.8344 381.536 38.9925 381.613 39.1293H381.69V35.8773H382.968V44.6289H381.72V43.6076H381.613C381.536 43.7472 381.425 43.9067 381.28 44.0862C381.137 44.2657 380.941 44.4224 380.69 44.5563C380.439 44.6902 380.115 44.7571 379.716 44.7571ZM379.998 43.6674C380.365 43.6674 380.676 43.5706 380.929 43.3769C381.186 43.1803 381.379 42.9082 381.51 42.5607C381.644 42.2131 381.711 41.8086 381.711 41.3471C381.711 40.8913 381.646 40.4924 381.515 40.1506C381.384 39.8087 381.191 39.5423 380.938 39.3515C380.684 39.1606 380.371 39.0652 379.998 39.0652C379.613 39.0652 379.293 39.1649 379.036 39.3643C378.78 39.5637 378.586 39.8358 378.455 40.1805C378.327 40.5252 378.263 40.914 378.263 41.3471C378.263 41.7858 378.328 42.1803 378.459 42.5308C378.59 42.8812 378.784 43.1589 379.04 43.364C379.3 43.5663 379.619 43.6674 379.998 43.6674ZM386.069 35.8773V44.6289H384.791V35.8773H386.069ZM390.617 44.7614C389.97 44.7614 389.413 44.6232 388.946 44.3469C388.481 44.0677 388.123 43.676 387.869 43.1717C387.618 42.6646 387.493 42.0707 387.493 41.3898C387.493 40.7175 387.618 40.1249 387.869 39.6121C388.123 39.0994 388.476 38.6991 388.929 38.4114C389.385 38.1236 389.917 37.9798 390.527 37.9798C390.897 37.9798 391.256 38.041 391.604 38.1635C391.951 38.286 392.263 38.4783 392.54 38.7404C392.816 39.0025 393.034 39.3429 393.193 39.7617C393.353 40.1776 393.433 40.6833 393.433 41.2787V41.7317H388.215V40.7745H392.181C392.181 40.4383 392.112 40.1406 391.976 39.8814C391.839 39.6193 391.647 39.4127 391.399 39.2617C391.154 39.1107 390.866 39.0353 390.535 39.0353C390.177 39.0353 389.863 39.1236 389.595 39.3002C389.33 39.474 389.125 39.7019 388.98 39.9839C388.838 40.2631 388.766 40.5665 388.766 40.8941V41.6419C388.766 42.0806 388.843 42.4538 388.997 42.7615C389.154 43.0692 389.372 43.3042 389.651 43.4666C389.93 43.6261 390.256 43.7059 390.629 43.7059C390.872 43.7059 391.092 43.6717 391.292 43.6033C391.491 43.5321 391.664 43.4267 391.809 43.2871C391.954 43.1475 392.065 42.9752 392.142 42.7701L393.352 42.988C393.255 43.3441 393.081 43.656 392.83 43.9238C392.582 44.1888 392.27 44.3953 391.894 44.5434C391.521 44.6887 391.095 44.7614 390.617 44.7614Z" fill="#27292E"/>
<line x1="415.9" y1="24.6572" x2="415.9" y2="55.6003" stroke="#E8EEF4" stroke-width="0.859529"/>
<rect x="436.099" y="25.4717" width="61.8193" height="29.3143" rx="3.43811" fill="#783FD9"/>
<path d="M449.279 40.1288H453.29M457.301 40.1288H453.29M453.29 40.1288V36.1177M453.29 40.1288V44.1399" stroke="white" stroke-width="0.859529" stroke-linecap="round" stroke-linejoin="round"/>
<path d="M465.612 44.6289H464.211L467.36 35.8773H468.886L472.035 44.6289H470.633L468.159 37.467H468.091L465.612 44.6289ZM465.847 41.2018H470.394V42.3128H465.847V41.2018ZM475.548 44.7571C475.018 44.7571 474.545 44.6218 474.129 44.3511C473.716 44.0777 473.391 43.6888 473.155 43.1846C472.921 42.6775 472.804 42.0692 472.804 41.3599C472.804 40.6505 472.922 40.0437 473.159 39.5395C473.398 39.0353 473.726 38.6492 474.142 38.3815C474.558 38.1137 475.029 37.9798 475.556 37.9798C475.964 37.9798 476.291 38.0481 476.539 38.1849C476.79 38.3188 476.983 38.4755 477.12 38.6549C477.26 38.8344 477.368 38.9925 477.445 39.1293H477.522V35.8773H478.8V44.6289H477.552V43.6076H477.445C477.368 43.7472 477.257 43.9067 477.112 44.0862C476.969 44.2657 476.773 44.4224 476.522 44.5563C476.271 44.6902 475.946 44.7571 475.548 44.7571ZM475.83 43.6674C476.197 43.6674 476.508 43.5706 476.761 43.3769C477.018 43.1803 477.211 42.9082 477.342 42.5607C477.476 42.2131 477.543 41.8086 477.543 41.3471C477.543 40.8913 477.478 40.4924 477.347 40.1506C477.216 39.8087 477.023 39.5423 476.77 39.3515C476.516 39.1606 476.203 39.0652 475.83 39.0652C475.445 39.0652 475.125 39.1649 474.868 39.3643C474.612 39.5637 474.418 39.8358 474.287 40.1805C474.159 40.5252 474.095 40.914 474.095 41.3471C474.095 41.7858 474.16 42.1803 474.291 42.5308C474.422 42.8812 474.616 43.1589 474.872 43.364C475.132 43.5663 475.451 43.6674 475.83 43.6674ZM483.08 44.7571C482.55 44.7571 482.077 44.6218 481.662 44.3511C481.248 44.0777 480.924 43.6888 480.687 43.1846C480.454 42.6775 480.337 42.0692 480.337 41.3599C480.337 40.6505 480.455 40.0437 480.692 39.5395C480.931 39.0353 481.258 38.6492 481.674 38.3815C482.09 38.1137 482.562 37.9798 483.089 37.9798C483.496 37.9798 483.824 38.0481 484.072 38.1849C484.322 38.3188 484.516 38.4755 484.653 38.6549C484.792 38.8344 484.901 38.9925 484.978 39.1293H485.054V35.8773H486.332V44.6289H485.084V43.6076H484.978C484.901 43.7472 484.79 43.9067 484.644 44.0862C484.502 44.2657 484.305 44.4224 484.055 44.5563C483.804 44.6902 483.479 44.7571 483.08 44.7571ZM483.362 43.6674C483.73 43.6674 484.04 43.5706 484.294 43.3769C484.55 43.1803 484.744 42.9082 484.875 42.5607C485.009 42.2131 485.076 41.8086 485.076 41.3471C485.076 40.8913 485.01 40.4924 484.879 40.1506C484.748 39.8087 484.556 39.5423 484.302 39.3515C484.049 39.1606 483.735 39.0652 483.362 39.0652C482.978 39.0652 482.657 39.1649 482.401 39.3643C482.144 39.5637 481.951 39.8358 481.82 40.1805C481.691 40.5252 481.627 40.914 481.627 41.3471C481.627 41.7858 481.693 42.1803 481.824 42.5308C481.955 42.8812 482.149 43.1589 482.405 43.364C482.664 43.5663 482.983 43.6674 483.362 43.6674Z" fill="white"/>
<path d="M532.299 166.479H-629.784V168.199H532.299V166.479Z" fill="#E8EEF4" mask="url(#path-19-inside-1_2038_616913)"/>
</g>
<rect x="8.63894" y="6.21805" width="503.459" height="68.8811" rx="15.6548" stroke="black" stroke-opacity="0.1" stroke-width="1.25238" shape-rendering="crispEdges"/>
</g>
<defs>
<filter id="filter0_d_2038_616913" x="0.498392" y="0.582261" width="519.74" height="85.1622" filterUnits="userSpaceOnUse" color-interpolation-filters="sRGB">
<feFlood flood-opacity="0" result="BackgroundImageFix"/>
<feColorMatrix in="SourceAlpha" type="matrix" values="0 0 0 0 0 0 0 0 0 0 0 0 0 0 0 0 0 0 127 0" result="hardAlpha"/>
<feMorphology radius="2.50477" operator="erode" in="SourceAlpha" result="effect1_dropShadow_2038_616913"/>
<feOffset dy="2.50477"/>
<feGaussianBlur stdDeviation="5.00954"/>
<feComposite in2="hardAlpha" operator="out"/>
<feColorMatrix type="matrix" values="0 0 0 0 0 0 0 0 0 0 0 0 0 0 0 0 0 0 0.08 0"/>
<feBlend mode="normal" in2="BackgroundImageFix" result="effect1_dropShadow_2038_616913"/>
<feBlend mode="normal" in="SourceGraphic" in2="effect1_dropShadow_2038_616913" result="shape"/>
</filter>
<clipPath id="clip0_2038_616913">
<rect x="9.26514" y="6.84424" width="502.206" height="67.6287" rx="15.0286" fill="white"/>
</clipPath>
</defs>
</svg>
