<svg width="101" height="25" viewBox="0 0 101 25" fill="none" xmlns="http://www.w3.org/2000/svg">
<path d="M49.0281 15.9295H48.6753L48.6612 16.0711C48.4778 17.9049 47.7853 19.3919 46.6762 20.4202C45.5675 21.448 44.0294 22.0299 42.1312 22.0299C39.5608 22.0299 37.3795 21.0866 35.8399 19.4198C34.2995 17.7521 33.3909 15.3483 33.3909 12.4105C33.3909 9.61983 34.2724 7.24322 35.8554 5.56559C37.4374 3.88906 39.7318 2.89772 42.584 2.89772C44.9763 2.89772 46.9832 3.60701 48.4893 4.88816C49.9557 6.13558 50.958 7.93418 51.3739 10.1755H48.4126C48.0997 8.73736 47.4084 7.5696 46.4237 6.75512C45.4102 5.91682 44.095 5.46036 42.584 5.46036C40.6806 5.46036 39.1174 6.12781 38.0315 7.34081C36.9474 8.55185 36.3531 10.2908 36.3531 12.4105C36.3531 14.5568 36.954 16.3149 38.0236 17.5387C39.095 18.7647 40.6248 19.4406 42.4508 19.4406C43.9373 19.4406 45.1772 18.9559 46.0463 18.1179C46.9158 17.2796 47.4031 16.0985 47.4031 14.7281V14.5709H44.1898V12.1948H47.9918C49.1663 12.1948 50.0479 12.4884 50.6352 13.035C51.2206 13.58 51.5374 14.3987 51.5374 15.5006V21.6303H49.0281V15.9295Z" fill="#202020"/>
<path fill-rule="evenodd" clip-rule="evenodd" d="M60.3273 19.6803C61.9689 19.6803 63.2391 18.8871 63.7681 17.4693H66.5192C66.1491 18.8656 65.4148 19.9841 64.3943 20.7635C63.3267 21.5787 61.9363 22.0299 60.3007 22.0299C58.1818 22.0299 56.4054 21.272 55.1587 19.9928C53.9116 18.7133 53.1854 16.9026 53.1854 14.7814C53.1854 12.4857 53.939 10.642 55.1658 9.37303C56.3926 8.10403 58.1022 7.39972 60.0343 7.39972C61.9937 7.39972 63.6149 8.08441 64.7572 9.3205C65.9006 10.5578 66.5771 12.362 66.6168 14.6229V15.2103H56.0003L56.015 15.3809C56.124 16.6484 56.575 17.724 57.3179 18.4842C58.0623 19.246 59.0896 19.6803 60.3273 19.6803ZM56.1519 13.1202L56.106 13.3136H63.7153L63.6782 13.126C63.4737 12.0898 63.0484 11.2449 62.4265 10.6579C61.8026 10.0691 60.9907 9.74925 60.0343 9.74925C58.0838 9.74925 56.645 11.038 56.1519 13.1202Z" fill="#202020"/>
<path d="M80.657 12.4371V21.6303H77.828V12.597C77.828 11.7755 77.5556 11.079 77.0399 10.5884C76.525 10.0985 75.7836 9.82917 74.8737 9.82917C72.7402 9.82917 71.2814 11.3064 71.2534 13.234L71.2534 13.2352V21.6303H68.4244V7.82595H70.9071V10.3141L71.1991 9.82748C72.0474 8.41364 73.7786 7.39972 75.8327 7.39972C77.3015 7.39972 78.5038 7.89279 79.3391 8.76011C80.1749 9.62799 80.657 10.8849 80.657 12.4371Z" fill="#202020"/>
<path fill-rule="evenodd" clip-rule="evenodd" d="M94.0832 19.6803C95.7248 19.6803 96.995 18.8871 97.524 17.4693H100.275C99.905 18.8656 99.1707 19.9841 98.1502 20.7635C97.0826 21.5787 95.6922 22.0299 94.0566 22.0299C91.9377 22.0299 90.1613 21.272 88.9146 19.9928C87.6675 18.7133 86.9413 16.9026 86.9413 14.7814C86.9413 12.4857 87.695 10.642 88.9217 9.37303C90.1485 8.10403 91.8581 7.39972 93.7902 7.39972C95.7496 7.39972 97.3708 8.08441 98.5131 9.3205C99.6565 10.5578 100.333 12.362 100.373 14.6229V15.2103H89.7562L89.7709 15.3809C89.8799 16.6484 90.3309 17.724 91.0738 18.4842C91.8182 19.246 92.8455 19.6803 94.0832 19.6803ZM89.9078 13.1202L89.8619 13.3136H97.4712L97.4341 13.126C97.2296 12.0898 96.8043 11.2449 96.1824 10.6579C95.5585 10.0691 94.7466 9.74925 93.7902 9.74925C91.8397 9.74925 90.4009 11.038 89.9078 13.1202Z" fill="#202020"/>
<path d="M82.4118 2.89772H85.3476V5.61088H82.4118V2.89772Z" fill="#202020"/>
<path d="M85.2888 7.82595V21.6303H82.4598V7.82595H85.2888Z" fill="#202020"/>
<path d="M10.2334 0.465332H6.63237C3.23369 0.465332 0.478516 3.22051 0.478516 6.61919V18.3115C0.478516 21.7102 3.2337 24.4653 6.63238 24.4653H7.3457L9.8535 15.8701C9.91602 15.6558 9.75531 15.4415 9.5321 15.4415H6.04704C5.8215 15.4415 5.66048 15.2231 5.72723 15.0076L10.2334 0.465332Z" fill="#FF5500"/>
<path d="M8.86665 24.4653H18.3247C21.7234 24.4653 24.4786 21.7102 24.4786 18.3115V6.61919C24.4786 3.52154 22.1899 0.958445 19.2112 0.528708L14.103 9.85273C14.0972 9.86333 14.092 9.87404 14.0875 9.88483L12.6286 12.437C12.5449 12.6044 12.728 12.7247 12.8797 12.6044C13.028 12.4868 15.1951 10.7397 15.5765 10.3484H19.2277C19.5068 10.3484 19.6634 10.6698 19.4914 10.8895L8.86665 24.4653Z" fill="#FF5500"/>
</svg>
