<svg width="229" height="337" viewBox="0 0 229 337" fill="none" xmlns="http://www.w3.org/2000/svg">
<path d="M44.0549 41.9192L44.0559 40.1788L44.0551 40.1788L44.0551 40.1742L43.4036 40.1746L43.1861 40.1732C39.179 40.1478 35.9388 36.9021 35.9224 32.8928L35.922 32.7926L35.9225 32.0109L34.1721 32.012L34.1721 32.0221L34.1708 32.0221L34.1703 32.8981C34.168 36.8953 30.9696 40.0948 27.0062 40.1817L25.9771 40.1824L25.976 41.9355L26.8511 41.9357C30.8885 41.937 34.1588 45.207 34.1603 49.2443L34.1614 49.2443L34.1609 50.1294L35.9113 50.1283L35.9118 49.2415L35.9122 49.2415C35.9107 45.1972 39.1651 41.9564 43.185 41.9258L43.2809 41.9251L44.0541 41.9246L44.0541 41.9192L44.0549 41.9192Z" fill="#202020"/>
<path d="M130.54 154.001L130.541 152.814L130.54 152.814L130.54 152.811L130.096 152.811L129.948 152.811C127.216 152.793 125.006 150.58 124.995 147.847L124.995 147.778L124.995 147.245L123.802 147.246L123.802 147.253L123.801 147.253L123.801 147.85C123.799 150.576 121.618 152.757 118.916 152.816L118.214 152.817L118.214 154.012L118.81 154.012C121.563 154.013 123.793 156.243 123.794 158.995L123.795 158.995L123.794 159.599L124.988 159.598L124.988 158.993L124.988 158.993C124.987 156.236 127.206 154.026 129.947 154.005L130.012 154.005L130.54 154.005L130.54 154.001L130.54 154.001Z" fill="#202020"/>
<path d="M9.07403 215.131L9.07452 214.339L9.07417 214.339L9.07417 214.337L8.77799 214.338L8.67914 214.337C6.85774 214.325 5.38495 212.85 5.37748 211.028L5.3773 210.982L5.37752 210.627L4.58189 210.627L4.58189 210.632L4.58132 210.632L4.58109 211.03C4.58003 212.847 3.12625 214.301 1.3247 214.341L0.856911 214.341L0.856419 215.138L1.25421 215.138C3.08937 215.139 4.57586 216.625 4.57653 218.46L4.57705 218.46L4.5768 218.862L5.37242 218.862L5.37267 218.459L5.37284 218.459C5.37218 216.621 6.85143 215.147 8.67865 215.134L8.72223 215.133L9.07367 215.133L9.07368 215.131L9.07403 215.131Z" fill="#FBBC04"/>
<path d="M227.919 10.9763L227.92 9.23591L227.919 9.23591L227.919 9.23135L227.267 9.23175L227.05 9.23037C223.043 9.2049 219.803 5.9592 219.786 1.94996L219.786 1.84973L219.786 1.06808L218.036 1.06916L218.036 1.07924L218.035 1.07924L218.034 1.95522C218.032 5.95241 214.833 9.15191 210.87 9.23885L209.841 9.23949L209.84 10.9926L210.715 10.9929C214.752 10.9941 218.023 14.2641 218.024 18.3014L218.025 18.3014L218.025 19.1865L219.775 19.1855L219.776 18.2986L219.776 18.2986C219.774 14.2544 223.029 11.0135 227.049 10.9829L227.145 10.9822L227.918 10.9817L227.918 10.9763L227.919 10.9763Z" fill="#FBBC04"/>
<path d="M114.185 332.014L114.184 332.805L114.185 332.805L114.185 332.807L114.481 332.807L114.58 332.808C116.401 332.819 117.874 334.295 117.881 336.117L117.881 336.162L117.881 336.518L118.677 336.517L118.677 336.513L118.677 336.513L118.678 336.115C118.679 334.298 120.133 332.843 121.934 332.804L122.402 332.803L122.402 332.007L122.005 332.006C120.169 332.006 118.683 330.52 118.682 328.684L118.682 328.684L118.682 328.282L117.886 328.283L117.886 328.686L117.886 328.686C117.887 330.524 116.407 331.997 114.58 332.011L114.537 332.011L114.185 332.012L114.185 332.014L114.185 332.014Z" fill="#202020"/>
</svg>
