<svg width="382" height="303" viewBox="0 0 382 303" fill="none" xmlns="http://www.w3.org/2000/svg">
<path d="M337.467 184.465L337.465 186.205L337.466 186.205L337.466 186.21L338.118 186.209L338.335 186.211C342.342 186.236 345.583 189.482 345.599 193.491L345.599 193.591L345.599 194.373L347.349 194.372L347.349 194.362L347.351 194.362L347.351 193.486C347.353 189.489 350.552 186.289 354.515 186.202L355.544 186.201L355.545 184.448L354.67 184.448C350.633 184.447 347.363 181.177 347.361 177.139L347.36 177.139L347.36 176.254L345.61 176.255L345.61 177.142L345.609 177.142C345.611 181.187 342.356 184.427 338.336 184.458L338.24 184.459L337.467 184.459L337.467 184.465L337.467 184.465Z" fill="#202020"/>
<path d="M250.981 72.3828L250.981 73.5695L250.981 73.5695L250.981 73.5726L251.425 73.5723L251.574 73.5732C254.306 73.5906 256.515 75.8036 256.526 78.5372L256.526 78.6055L256.526 79.1384L257.72 79.1377L257.72 79.1308L257.72 79.1308L257.721 78.5336C257.722 75.8082 259.903 73.6267 262.605 73.5675L263.307 73.567L263.308 72.3717L262.711 72.3715C259.958 72.3707 257.729 70.1411 257.728 67.3884L257.727 67.3884L257.727 66.7849L256.534 66.7857L256.533 67.3904L256.533 67.3904C256.534 70.1478 254.315 72.3575 251.574 72.3783L251.509 72.3788L250.982 72.3791L250.982 72.3828L250.981 72.3828Z" fill="#FBBC04"/>
<path d="M372.447 11.2533L372.447 12.0444L372.447 12.0444L372.447 12.0464L372.743 12.0462L372.842 12.0469C374.663 12.0585 376.136 13.5338 376.144 15.3562L376.144 15.4017L376.144 15.757L376.939 15.7565L376.939 15.7519L376.94 15.7519L376.94 15.3538C376.941 13.5369 378.395 12.0825 380.197 12.043L380.664 12.0427L380.665 11.2459L380.267 11.2457C378.432 11.2452 376.945 9.7588 376.945 7.92366L376.944 7.92366L376.944 7.52134L376.149 7.52183L376.149 7.92496L376.148 7.92496C376.149 9.76324 374.67 11.2364 372.843 11.2503L372.799 11.2506L372.448 11.2508L372.448 11.2533L372.447 11.2533Z" fill="#202020"/>
<path d="M245.055 296.543L245.055 295.356L245.055 295.356L245.055 295.353L244.611 295.353L244.462 295.353C241.73 295.335 239.521 293.122 239.51 290.389L239.509 290.32L239.51 289.787L238.316 289.788L238.316 289.795L238.315 289.795L238.315 290.392C238.314 293.118 236.133 295.299 233.43 295.358L232.729 295.359L232.728 296.554L233.325 296.554C236.078 296.555 238.307 298.785 238.308 301.537L238.309 301.537L238.309 302.141L239.502 302.14L239.502 301.535L239.503 301.535C239.502 298.778 241.721 296.568 244.461 296.547L244.527 296.547L245.054 296.547L245.054 296.543L245.055 296.543Z" fill="#FBBC04"/>
<path d="M13.3057 7.70703L13.3064 6.52038L13.3059 6.52038L13.3059 6.51727L12.8616 6.51754L12.7133 6.5166C9.98121 6.49924 7.77202 4.28626 7.76081 1.55268L7.76053 1.48435L7.76086 0.951402L6.56742 0.95214L6.56741 0.95901L6.56655 0.95901L6.56622 1.55627C6.56463 4.28163 4.38393 6.4631 1.68159 6.52239L0.979905 6.52282L0.979166 7.71812L1.57585 7.71831C4.32862 7.71913 6.55837 9.94872 6.55937 12.7014L6.56015 12.7014L6.55978 13.3049L7.75322 13.3042L7.75359 12.6995L7.75385 12.6995C7.75285 9.94205 9.97175 7.73236 12.7126 7.71152L12.778 7.71102L13.3051 7.7107L13.3051 7.70703L13.3057 7.70703Z" fill="#202020"/>
</svg>
